<?xml version="1.0" encoding="UTF-8"?>
<svg version="1.1" xmlns="http://www.w3.org/2000/svg" width="1574" height="1574">
<path d="M0 0 C30.03 0 60.06 0 91 0 C91 12.21 91 24.42 91 37 C95.29 37 99.58 37 104 37 C106.97492632 37.16501151 109.9122801 37.35616542 112.875 37.62890625 C113.66625275 37.69841492 114.45750549 37.76792358 115.2727356 37.83953857 C117.84947116 38.07105766 120.42477365 38.31477801 123 38.5625 C123.90006775 38.64825287 124.8001355 38.73400574 125.72747803 38.82235718 C178.81794097 43.96053708 231.96506408 54.18328351 282 73 C282.9497168 73.34836914 283.89943359 73.69673828 284.87792969 74.05566406 C287.71808839 75.10094102 290.54775747 76.17033287 293.375 77.25 C294.23287109 77.56727051 295.09074219 77.88454102 295.97460938 78.21142578 C296.75384766 78.51806152 297.53308594 78.82469727 298.3359375 79.140625 C299.36533447 79.53556152 299.36533447 79.53556152 300.41552734 79.93847656 C302 81 302 81 302.8671875 82.69335938 C303.06254287 86.08622257 301.97349498 88.58878822 300.7890625 91.765625 C300.54535919 92.42830887 300.30165588 93.09099274 300.05056763 93.77375793 C299.25232496 95.93647669 298.43887209 98.09311989 297.625 100.25 C297.07361406 101.73459951 296.52316371 103.21954682 295.97363281 104.70483398 C294.59091813 108.43407266 293.1956119 112.15844547 291.79577637 115.88128662 C290.58988746 119.0919034 289.39301617 122.30585207 288.1953125 125.51953125 C286.14280379 131.01780526 284.0777436 136.51121419 282 142 C282.54019775 142.17088135 283.08039551 142.3417627 283.63696289 142.51782227 C289.3736825 144.37543258 294.90105887 146.55434222 300.4375 148.9375 C302.09867506 149.64519654 303.76013106 150.35223403 305.421875 151.05859375 C306.20884766 151.39358887 306.99582031 151.72858398 307.80664062 152.07373047 C311.84594715 153.77955515 315.91930102 155.3965402 320 157 C320.35707031 155.80375 320.71414063 154.6075 321.08203125 153.375 C323.3303378 146.63928932 326.55685444 140.35622433 329.6875 134 C330.63301743 132.06467366 331.57655479 130.12839007 332.52001953 128.19206238 C333.14177282 126.91636856 333.76416275 125.64098482 334.38720703 124.36592102 C336.92920299 119.16110742 339.41927498 113.93347964 341.875 108.6875 C342.20201904 107.98947266 342.52903809 107.29144531 342.8659668 106.57226562 C343.57865032 105.04880282 344.28958582 103.52452236 345 102 C378.94722342 112.81768915 411.26629434 131.59685105 441 151 C441.63744141 151.41588379 442.27488281 151.83176758 442.93164062 152.26025391 C460.5103976 163.76435733 477.41930259 176.10440442 494 189 C495.38251953 190.07507813 495.38251953 190.07507813 496.79296875 191.171875 C502.25593498 195.48521212 507.53004422 200.00495467 512.7980957 204.55200195 C517.76666126 208.83062205 522.83788968 212.95595044 528 217 C533.99500997 212.03805145 539.46427037 206.6523376 544.9375 201.125 C545.81212891 200.24585938 546.68675781 199.36671875 547.58789062 198.4609375 C549.72757048 196.3095654 551.86486597 194.15588208 554 192 C558.21592931 193.64393376 561.03022614 196.76355386 564.14550781 199.91845703 C565.05346603 200.82597717 565.05346603 200.82597717 565.97976685 201.75183105 C567.9756645 203.74911999 569.96438799 205.75339558 571.953125 207.7578125 C573.33702668 209.14544502 574.72137112 210.5326361 576.10614014 211.91940308 C579.7470322 215.567926 583.38187778 219.22241552 587.01550293 222.87817383 C590.72545688 226.60859789 594.44108927 230.33335643 598.15625 234.05859375 C605.44307344 241.36685747 612.72352265 248.68143616 620 256 C618.21627154 259.8431223 615.7737487 262.48441391 612.7734375 265.421875 C612.26575836 265.92672424 611.75807922 266.43157349 611.23501587 266.95172119 C609.61966158 268.55592096 607.99747791 270.15300856 606.375 271.75 C605.27558302 272.83938107 604.17661941 273.9292199 603.078125 275.01953125 C600.3906398 277.68501885 597.69700979 280.34415143 595 283 C598.40362564 287.65372944 601.86283531 292.10083434 605.8125 296.3125 C638.68001763 332.06141962 711 414.8308048 711 466 C710.47792969 466.23074219 709.95585938 466.46148437 709.41796875 466.69921875 C700.52990356 470.63736322 691.66073291 474.57979192 683 479 C673.82649768 483.68191197 664.41791615 487.8375136 655 492 C658.34264336 502.00260702 662.03499527 511.70533661 666.45898438 521.28466797 C669 526.81372975 669 526.81372975 669 529 C671.5843933 528.10715056 674.167542 527.21092422 676.75 526.3125 C677.59876709 526.01794922 678.44753418 525.72339844 679.32202148 525.41992188 C685.65048337 523.20927619 691.9485473 520.9233269 698.23828125 518.60546875 C700.69200286 517.7051962 703.1459641 516.80557948 705.59997559 515.90609741 C707.24304478 515.30152239 708.88489509 514.69362451 710.5255127 514.08242798 C712.85911523 513.21337255 715.19662217 512.35567973 717.53515625 511.5 C718.24376297 511.23265549 718.95236969 510.96531097 719.68244934 510.68986511 C724.65883156 508.88627719 724.65883156 508.88627719 728 510 C729.3465589 512.57494405 730.47712584 515.06422885 731.5625 517.75 C732.07478149 518.99583862 732.07478149 518.99583862 732.59741211 520.2668457 C754.83910069 575.47505053 766.70014841 634.46544254 772.3125 693.5625 C772.39976349 694.47676758 772.48702698 695.39103516 772.57693481 696.33300781 C772.82405814 698.95197754 773.06422736 701.57146239 773.30078125 704.19140625 C773.37238464 704.96404312 773.44398804 705.73667999 773.51776123 706.5327301 C773.58191223 707.26773239 773.64606323 708.00273468 773.7121582 708.76000977 C773.79612602 709.70324852 773.79612602 709.70324852 773.88179016 710.6655426 C774.05601354 714.10617884 774 717.55495552 774 721 C786.21 721 798.42 721 811 721 C811 751.03 811 781.06 811 812 C798.79 812 786.58 812 774 812 C774 816.29 774 820.58 774 825 C773.83498849 827.97492632 773.64383458 830.9122801 773.37109375 833.875 C773.30158508 834.66625275 773.23207642 835.45750549 773.16046143 836.2727356 C772.92894234 838.84947116 772.68522199 841.42477365 772.4375 844 C772.35174713 844.90006775 772.26599426 845.8001355 772.17764282 846.72747803 C767.03946292 899.81794097 756.81671649 952.96506408 738 1003 C737.65163086 1003.9497168 737.30326172 1004.89943359 736.94433594 1005.87792969 C735.89905898 1008.71808839 734.82966713 1011.54775747 733.75 1014.375 C733.43272949 1015.23287109 733.11545898 1016.09074219 732.78857422 1016.97460938 C732.48193848 1017.75384766 732.17530273 1018.53308594 731.859375 1019.3359375 C731.59608398 1020.02220215 731.33279297 1020.7084668 731.06152344 1021.41552734 C730 1023 730 1023 728.30664062 1023.8671875 C724.91377743 1024.06254287 722.41121178 1022.97349498 719.234375 1021.7890625 C718.57169113 1021.54535919 717.90900726 1021.30165588 717.22624207 1021.05056763 C715.06352331 1020.25232496 712.90688011 1019.43887209 710.75 1018.625 C709.26540049 1018.07361406 707.78045318 1017.52316371 706.29516602 1016.97363281 C702.56592734 1015.59091813 698.84155453 1014.1956119 695.11871338 1012.79577637 C691.9080966 1011.58988746 688.69414793 1010.39301617 685.48046875 1009.1953125 C679.98219474 1007.14280379 674.48878581 1005.0777436 669 1003 C668.82911865 1003.54019775 668.6582373 1004.08039551 668.48217773 1004.63696289 C666.62456742 1010.3736825 664.44565778 1015.90105887 662.0625 1021.4375 C661.35480346 1023.09867506 660.64776597 1024.76013106 659.94140625 1026.421875 C659.60641113 1027.20884766 659.27141602 1027.99582031 658.92626953 1028.80664062 C657.22044485 1032.84594715 655.6034598 1036.91930102 654 1041 C655.19625 1041.35707031 656.3925 1041.71414063 657.625 1042.08203125 C664.36071068 1044.3303378 670.64377567 1047.55685444 677 1050.6875 C678.93532634 1051.63301743 680.87160993 1052.57655479 682.80793762 1053.52001953 C684.08363144 1054.14177282 685.35901518 1054.76416275 686.63407898 1055.38720703 C691.83889258 1057.92920299 697.06652036 1060.41927498 702.3125 1062.875 C703.01052734 1063.20201904 703.70855469 1063.52903809 704.42773438 1063.8659668 C705.95119718 1064.57865032 707.47547764 1065.28958582 709 1066 C698.18231085 1099.94722342 679.40314895 1132.26629434 660 1162 C659.58411621 1162.63744141 659.16823242 1163.27488281 658.73974609 1163.93164062 C647.23564267 1181.5103976 634.89559558 1198.41930259 622 1215 C621.28328125 1215.92167969 620.5665625 1216.84335938 619.828125 1217.79296875 C615.51478788 1223.25593498 610.99504533 1228.53004422 606.44799805 1233.7980957 C602.16937795 1238.76666126 598.04404956 1243.83788968 594 1249 C598.96194855 1254.99500997 604.3476624 1260.46427037 609.875 1265.9375 C610.75414062 1266.81212891 611.63328125 1267.68675781 612.5390625 1268.58789062 C614.6904346 1270.72757048 616.84411792 1272.86486597 619 1275 C617.35606624 1279.21592931 614.23644614 1282.03022614 611.08154297 1285.14550781 C610.47652954 1285.75081329 609.87151611 1286.35611877 609.24816895 1286.97976685 C607.25088001 1288.9756645 605.24660442 1290.96438799 603.2421875 1292.953125 C601.85455498 1294.33702668 600.4673639 1295.72137112 599.08059692 1297.10614014 C595.432074 1300.7470322 591.77758448 1304.38187778 588.12182617 1308.01550293 C584.39140211 1311.72545688 580.66664357 1315.44108927 576.94140625 1319.15625 C569.63314253 1326.44307344 562.31856384 1333.72352265 555 1341 C551.1568777 1339.21627154 548.51558609 1336.7737487 545.578125 1333.7734375 C545.07327576 1333.26575836 544.56842651 1332.75807922 544.04827881 1332.23501587 C542.44407904 1330.61966158 540.84699144 1328.99747791 539.25 1327.375 C538.16061893 1326.27558302 537.0707801 1325.17661941 535.98046875 1324.078125 C533.31498115 1321.3906398 530.65584857 1318.69700979 528 1316 C523.34627056 1319.40362564 518.89916566 1322.86283531 514.6875 1326.8125 C509.2955704 1331.76983418 503.73898903 1336.45161708 498 1341 C497.35675781 1341.51046875 496.71351562 1342.0209375 496.05078125 1342.546875 C485.58801265 1350.8242594 474.93114527 1358.78550904 464.06494141 1366.52441406 C462.15460615 1367.88952003 460.25329246 1369.26601394 458.35546875 1370.6484375 C431.25029348 1390.3400018 401.87898266 1406.92476637 371.75 1421.5 C371.13607391 1421.7976828 370.52214783 1422.0953656 369.88961792 1422.40206909 C350.04158601 1432 350.04158601 1432 345 1432 C344.76925781 1431.47792969 344.53851562 1430.95585938 344.30078125 1430.41796875 C340.36263678 1421.52990356 336.42020808 1412.66073291 332 1404 C327.31808803 1394.82649768 323.1624864 1385.41791615 319 1376 C308.99739298 1379.34264336 299.29466339 1383.03499527 289.71533203 1387.45898438 C284.18627025 1390 284.18627025 1390 282 1390 C282.89284944 1392.5843933 283.78907578 1395.167542 284.6875 1397.75 C284.98205078 1398.59876709 285.27660156 1399.44753418 285.58007812 1400.32202148 C287.79072381 1406.65048337 290.0766731 1412.9485473 292.39453125 1419.23828125 C293.2948038 1421.69200286 294.19442052 1424.1459641 295.09390259 1426.59997559 C295.69847761 1428.24304478 296.30637549 1429.88489509 296.91757202 1431.5255127 C297.78662745 1433.85911523 298.64432027 1436.19662217 299.5 1438.53515625 C299.76734451 1439.24376297 300.03468903 1439.95236969 300.31013489 1440.68244934 C302.11372281 1445.65883156 302.11372281 1445.65883156 301 1449 C298.42505595 1450.3465589 295.93577115 1451.47712584 293.25 1452.5625 C292.00416138 1453.07478149 292.00416138 1453.07478149 290.7331543 1453.59741211 C235.52494947 1475.83910069 176.53455746 1487.70014841 117.4375 1493.3125 C116.52323242 1493.39976349 115.60896484 1493.48702698 114.66699219 1493.57693481 C112.04802246 1493.82405814 109.42853761 1494.06422736 106.80859375 1494.30078125 C106.03595688 1494.37238464 105.26332001 1494.44398804 104.4672699 1494.51776123 C103.73226761 1494.58191223 102.99726532 1494.64606323 102.23999023 1494.7121582 C101.29675148 1494.79612602 101.29675148 1494.79612602 100.3344574 1494.88179016 C96.89382116 1495.05601354 93.44504448 1495 90 1495 C90 1507.21 90 1519.42 90 1532 C59.97 1532 29.94 1532 -1 1532 C-1 1519.79 -1 1507.58 -1 1495 C-5.29 1495 -9.58 1495 -14 1495 C-16.97492632 1494.83498849 -19.9122801 1494.64383458 -22.875 1494.37109375 C-23.66625275 1494.30158508 -24.45750549 1494.23207642 -25.2727356 1494.16046143 C-27.84947116 1493.92894234 -30.42477365 1493.68522199 -33 1493.4375 C-33.90006775 1493.35174713 -34.8001355 1493.26599426 -35.72747803 1493.17764282 C-88.81794097 1488.03946292 -141.96506408 1477.81671649 -192 1459 C-192.9497168 1458.65163086 -193.89943359 1458.30326172 -194.87792969 1457.94433594 C-197.71808839 1456.89905898 -200.54775747 1455.82966713 -203.375 1454.75 C-204.23287109 1454.43272949 -205.09074219 1454.11545898 -205.97460938 1453.78857422 C-206.75384766 1453.48193848 -207.53308594 1453.17530273 -208.3359375 1452.859375 C-209.02220215 1452.59608398 -209.7084668 1452.33279297 -210.41552734 1452.06152344 C-212 1451 -212 1451 -212.8671875 1449.30664062 C-213.06254287 1445.91377743 -211.97349498 1443.41121178 -210.7890625 1440.234375 C-210.54535919 1439.57169113 -210.30165588 1438.90900726 -210.05056763 1438.22624207 C-209.25232496 1436.06352331 -208.43887209 1433.90688011 -207.625 1431.75 C-207.07361406 1430.26540049 -206.52316371 1428.78045318 -205.97363281 1427.29516602 C-204.59091813 1423.56592734 -203.1956119 1419.84155453 -201.79577637 1416.11871338 C-200.58988746 1412.9080966 -199.39301617 1409.69414793 -198.1953125 1406.48046875 C-196.14280379 1400.98219474 -194.0777436 1395.48878581 -192 1390 C-192.54019775 1389.82911865 -193.08039551 1389.6582373 -193.63696289 1389.48217773 C-199.3736825 1387.62456742 -204.90105887 1385.44565778 -210.4375 1383.0625 C-212.09867506 1382.35480346 -213.76013106 1381.64776597 -215.421875 1380.94140625 C-216.20884766 1380.60641113 -216.99582031 1380.27141602 -217.80664062 1379.92626953 C-221.84594715 1378.22044485 -225.91930102 1376.6034598 -230 1375 C-230.53560547 1376.794375 -230.53560547 1376.794375 -231.08203125 1378.625 C-233.3303378 1385.36071068 -236.55685444 1391.64377567 -239.6875 1398 C-240.63301743 1399.93532634 -241.57655479 1401.87160993 -242.52001953 1403.80793762 C-243.14177282 1405.08363144 -243.76416275 1406.35901518 -244.38720703 1407.63407898 C-246.92920299 1412.83889258 -249.41927498 1418.06652036 -251.875 1423.3125 C-252.20201904 1424.01052734 -252.52903809 1424.70855469 -252.8659668 1425.42773438 C-253.57865032 1426.95119718 -254.28958582 1428.47547764 -255 1430 C-288.94722342 1419.18231085 -321.26629434 1400.40314895 -351 1381 C-351.63744141 1380.58411621 -352.27488281 1380.16823242 -352.93164062 1379.73974609 C-370.5103976 1368.23564267 -387.41930259 1355.89559558 -404 1343 C-404.92167969 1342.28328125 -405.84335937 1341.5665625 -406.79296875 1340.828125 C-412.25593498 1336.51478788 -417.53004422 1331.99504533 -422.7980957 1327.44799805 C-427.76666126 1323.16937795 -432.83788968 1319.04404956 -438 1315 C-443.99500997 1319.96194855 -449.46427037 1325.3476624 -454.9375 1330.875 C-456.24944336 1332.19371094 -456.24944336 1332.19371094 -457.58789062 1333.5390625 C-459.72757048 1335.6904346 -461.86486597 1337.84411792 -464 1340 C-468.21592931 1338.35606624 -471.03022614 1335.23644614 -474.14550781 1332.08154297 C-474.75081329 1331.47652954 -475.35611877 1330.87151611 -475.97976685 1330.24816895 C-477.9756645 1328.25088001 -479.96438799 1326.24660442 -481.953125 1324.2421875 C-483.33702668 1322.85455498 -484.72137112 1321.4673639 -486.10614014 1320.08059692 C-489.7470322 1316.432074 -493.38187778 1312.77758448 -497.01550293 1309.12182617 C-500.72545688 1305.39140211 -504.44108927 1301.66664357 -508.15625 1297.94140625 C-515.44307344 1290.63314253 -522.72352265 1283.31856384 -530 1276 C-528.21627154 1272.1568777 -525.7737487 1269.51558609 -522.7734375 1266.578125 C-522.01191879 1265.82085114 -522.01191879 1265.82085114 -521.23501587 1265.04827881 C-519.61966158 1263.44407904 -517.99747791 1261.84699144 -516.375 1260.25 C-515.27558302 1259.16061893 -514.17661941 1258.0707801 -513.078125 1256.98046875 C-510.3906398 1254.31498115 -507.69700979 1251.65584857 -505 1249 C-508.40362564 1244.34627056 -511.86283531 1239.89916566 -515.8125 1235.6875 C-548.68001763 1199.93858038 -621 1117.1691952 -621 1066 C-620.21689453 1065.65388672 -620.21689453 1065.65388672 -619.41796875 1065.30078125 C-610.52990356 1061.36263678 -601.66073291 1057.42020808 -593 1053 C-583.82649768 1048.31808803 -574.41791615 1044.1624864 -565 1040 C-568.34264336 1029.99739298 -572.03499527 1020.29466339 -576.45898438 1010.71533203 C-579 1005.18627025 -579 1005.18627025 -579 1003 C-581.5843933 1003.89284944 -584.167542 1004.78907578 -586.75 1005.6875 C-587.59876709 1005.98205078 -588.44753418 1006.27660156 -589.32202148 1006.58007812 C-595.65048337 1008.79072381 -601.9485473 1011.0766731 -608.23828125 1013.39453125 C-610.69200286 1014.2948038 -613.1459641 1015.19442052 -615.59997559 1016.09390259 C-617.24304478 1016.69847761 -618.88489509 1017.30637549 -620.5255127 1017.91757202 C-622.85911523 1018.78662745 -625.19662217 1019.64432027 -627.53515625 1020.5 C-628.24376297 1020.76734451 -628.95236969 1021.03468903 -629.68244934 1021.31013489 C-634.65883156 1023.11372281 -634.65883156 1023.11372281 -638 1022 C-639.3465589 1019.42505595 -640.47712584 1016.93577115 -641.5625 1014.25 C-641.904021 1013.41944092 -642.24554199 1012.58888184 -642.59741211 1011.7331543 C-664.83910069 956.52494947 -676.70014841 897.53455746 -682.3125 838.4375 C-682.39976349 837.52323242 -682.48702698 836.60896484 -682.57693481 835.66699219 C-682.82405814 833.04802246 -683.06422736 830.42853761 -683.30078125 827.80859375 C-683.37238464 827.03595688 -683.44398804 826.26332001 -683.51776123 825.4672699 C-683.58191223 824.73226761 -683.64606323 823.99726532 -683.7121582 823.23999023 C-683.76813675 822.6111644 -683.8241153 821.98233856 -683.88179016 821.3344574 C-684.05601354 817.89382116 -684 814.44504448 -684 811 C-696.21 811 -708.42 811 -721 811 C-721 780.97 -721 750.94 -721 720 C-708.79 720 -696.58 720 -684 720 C-684 715.71 -684 711.42 -684 707 C-683.83498849 704.02507368 -683.64383458 701.0877199 -683.37109375 698.125 C-683.30158508 697.33374725 -683.23207642 696.54249451 -683.16046143 695.7272644 C-682.92894234 693.15052884 -682.68522199 690.57522635 -682.4375 688 C-682.35174713 687.09993225 -682.26599426 686.1998645 -682.17764282 685.27252197 C-677.03946292 632.18205903 -666.81671649 579.03493592 -648 529 C-647.65163086 528.0502832 -647.30326172 527.10056641 -646.94433594 526.12207031 C-645.89905898 523.28191161 -644.82966713 520.45224253 -643.75 517.625 C-643.43272949 516.76712891 -643.11545898 515.90925781 -642.78857422 515.02539062 C-642.48193848 514.24615234 -642.17530273 513.46691406 -641.859375 512.6640625 C-641.46443848 511.63466553 -641.46443848 511.63466553 -641.06152344 510.58447266 C-640 509 -640 509 -638.30664062 508.1328125 C-634.91377743 507.93745713 -632.41121178 509.02650502 -629.234375 510.2109375 C-628.57169113 510.45464081 -627.90900726 510.69834412 -627.22624207 510.94943237 C-625.06352331 511.74767504 -622.90688011 512.56112791 -620.75 513.375 C-619.26540049 513.92638594 -617.78045318 514.47683629 -616.29516602 515.02636719 C-612.56592734 516.40908187 -608.84155453 517.8043881 -605.11871338 519.20422363 C-601.9080966 520.41011254 -598.69414793 521.60698383 -595.48046875 522.8046875 C-589.98219474 524.85719621 -584.48878581 526.9222564 -579 529 C-578.82911865 528.45980225 -578.6582373 527.91960449 -578.48217773 527.36303711 C-576.62456742 521.6263175 -574.44565778 516.09894113 -572.0625 510.5625 C-571.35480346 508.90132494 -570.64776597 507.23986894 -569.94140625 505.578125 C-569.43891357 504.39766602 -569.43891357 504.39766602 -568.92626953 503.19335938 C-567.22044485 499.15405285 -565.6034598 495.08069898 -564 491 C-565.19625 490.64292969 -566.3925 490.28585937 -567.625 489.91796875 C-574.36071068 487.6696622 -580.64377567 484.44314556 -587 481.3125 C-588.93532634 480.36698257 -590.87160993 479.42344521 -592.80793762 478.47998047 C-594.08363144 477.85822718 -595.35901518 477.23583725 -596.63407898 476.61279297 C-601.83889258 474.07079701 -607.06652036 471.58072502 -612.3125 469.125 C-613.01052734 468.79798096 -613.70855469 468.47096191 -614.42773438 468.1340332 C-615.95119718 467.42134968 -617.47547764 466.71041418 -619 466 C-608.18231085 432.05277658 -589.40314895 399.73370566 -570 370 C-569.58411621 369.36255859 -569.16823242 368.72511719 -568.73974609 368.06835938 C-557.23564267 350.4896024 -544.89559558 333.58069741 -532 317 C-531.28328125 316.07832031 -530.5665625 315.15664063 -529.828125 314.20703125 C-525.51478788 308.74406502 -520.99504533 303.46995578 -516.44799805 298.2019043 C-512.16937795 293.23333874 -508.04404956 288.16211032 -504 283 C-508.96194855 277.00499003 -514.3476624 271.53572963 -519.875 266.0625 C-520.75414062 265.18787109 -521.63328125 264.31324219 -522.5390625 263.41210938 C-524.6904346 261.27242952 -526.84411792 259.13513403 -529 257 C-527.35606624 252.78407069 -524.23644614 249.96977386 -521.08154297 246.85449219 C-520.47652954 246.24918671 -519.87151611 245.64388123 -519.24816895 245.02023315 C-517.25088001 243.0243355 -515.24660442 241.03561201 -513.2421875 239.046875 C-511.85455498 237.66297332 -510.4673639 236.27862888 -509.08059692 234.89385986 C-505.432074 231.2529678 -501.77758448 227.61812222 -498.12182617 223.98449707 C-494.39140211 220.27454312 -490.66664357 216.55891073 -486.94140625 212.84375 C-479.63314253 205.55692656 -472.31856384 198.27647735 -465 191 C-461.1568777 192.78372846 -458.51558609 195.2262513 -455.578125 198.2265625 C-455.07327576 198.73424164 -454.56842651 199.24192078 -454.04827881 199.76498413 C-452.44407904 201.38033842 -450.84699144 203.00252209 -449.25 204.625 C-448.16061893 205.72441698 -447.0707801 206.82338059 -445.98046875 207.921875 C-443.31498115 210.6093602 -440.65584857 213.30299021 -438 216 C-433.34627056 212.59637436 -428.89916566 209.13716469 -424.6875 205.1875 C-388.93858038 172.31998237 -306.1691952 100 -255 100 C-254.76925781 100.52207031 -254.53851563 101.04414062 -254.30078125 101.58203125 C-250.36263678 110.47009644 -246.42020808 119.33926709 -242 128 C-237.31808803 137.17350232 -233.1624864 146.58208385 -229 156 C-218.99739298 152.65735664 -209.29466339 148.96500473 -199.71533203 144.54101562 C-194.18627025 142 -194.18627025 142 -192 142 C-192.89284944 139.4156067 -193.78907578 136.832458 -194.6875 134.25 C-194.98205078 133.40123291 -195.27660156 132.55246582 -195.58007812 131.67797852 C-197.79072381 125.34951663 -200.0766731 119.0514527 -202.39453125 112.76171875 C-203.2948038 110.30799714 -204.19442052 107.8540359 -205.09390259 105.40002441 C-205.69847761 103.75695522 -206.30637549 102.11510491 -206.91757202 100.4744873 C-207.78662745 98.14088477 -208.64432027 95.80337783 -209.5 93.46484375 C-209.76734451 92.75623703 -210.03468903 92.04763031 -210.31013489 91.31755066 C-212.11372281 86.34116844 -212.11372281 86.34116844 -211 83 C-208.42505595 81.6534411 -205.93577115 80.52287416 -203.25 79.4375 C-202.41944092 79.095979 -201.58888184 78.75445801 -200.7331543 78.40258789 C-145.52494947 56.16089931 -86.53455746 44.29985159 -27.4375 38.6875 C-26.52323242 38.60023651 -25.60896484 38.51297302 -24.66699219 38.42306519 C-22.04802246 38.17594186 -19.42853761 37.93577264 -16.80859375 37.69921875 C-15.64963844 37.59181366 -15.64963844 37.59181366 -14.4672699 37.48223877 C-13.73226761 37.41808777 -12.99726532 37.35393677 -12.23999023 37.2878418 C-11.6111644 37.23186325 -10.98233856 37.1758847 -10.3344574 37.11820984 C-6.89382116 36.94398646 -3.44504448 37 0 37 C0 24.79 0 12.58 0 0 Z M91 94 C91 117.43 91 140.86 91 165 C100.7922851 166.72805031 110.54314819 168.41826167 120.36938477 169.89013672 C140.68886557 172.95661823 160.84118805 176.75293232 180.99731445 180.74829102 C182.08937195 180.96321701 183.18142944 181.17814301 184.30657959 181.39958191 C186.36386914 181.80495794 188.4203615 182.21440863 190.47589111 182.62861633 C191.3952948 182.80966415 192.31469849 182.99071198 193.26196289 183.17724609 C194.06001846 183.33679779 194.85807404 183.49634949 195.68031311 183.66073608 C198.15056343 184.02202053 200.5069765 184.05816876 203 184 C203.26627197 183.03513672 203.53254395 182.07027344 203.80688477 181.07617188 C205.05660418 176.55018494 206.30928645 172.0250205 207.5625 167.5 C207.78831757 166.68399323 208.01413513 165.86798645 208.24679565 165.0272522 C211.36700883 153.76011623 214.54002292 142.51387525 217.92993164 131.32421875 C218.32233032 130.009375 218.32233032 130.009375 218.72265625 128.66796875 C218.94703369 127.92828857 219.17141113 127.1886084 219.40258789 126.42651367 C220.16980018 123.3103212 220.58354804 120.1798926 221 117 C208.33950731 114.30369091 195.67356892 111.63419995 183 109 C181.82453613 108.75556152 180.64907227 108.51112305 179.43798828 108.25927734 C163.67902908 105.01904625 147.81029569 102.42318327 131.9375 99.8125 C130.35236099 99.55049805 130.35236099 99.55049805 128.73519897 99.28320312 C125.64580623 98.77408297 122.5555086 98.27086544 119.46484375 97.76953125 C118.56332581 97.62075027 117.66180786 97.4719693 116.73297119 97.31867981 C108.16626286 95.94237871 99.6458924 95.01716381 91 94 Z M-10.453125 95.06640625 C-11.58520638 95.23732536 -11.58520638 95.23732536 -12.74015808 95.41169739 C-15.24400486 95.79169268 -17.74709275 96.17636633 -20.25 96.5625 C-21.11634064 96.69593811 -21.98268127 96.82937622 -22.87527466 96.96685791 C-52.981239 101.62206793 -82.88755144 107.25270532 -112.7421875 113.30078125 C-113.79907021 113.51443581 -113.79907021 113.51443581 -114.87730408 113.73240662 C-119.93174789 114.762185 -124.96765746 115.8673821 -130 117 C-127.20690047 128.43571407 -124.17294384 139.7892861 -121 151.125 C-120.57012915 152.66791768 -120.14044125 154.21088634 -119.7109375 155.75390625 C-117.17705657 164.84645095 -114.60607298 173.92788141 -112 183 C-106.82682501 184.69337015 -102.12752414 183.27408623 -96.96484375 182.19140625 C-94.8782264 181.7730938 -92.79155389 181.35505641 -90.70483398 180.93725586 C-89.60211151 180.71294891 -88.49938904 180.48864197 -87.36325073 180.25753784 C-64.70427776 175.66034298 -41.98782002 171.81290071 -19.11889648 168.42602539 C-17.52561523 168.18953781 -17.52561523 168.18953781 -15.90014648 167.94827271 C-13.91389036 167.65479088 -11.92717627 167.36438587 -9.93994141 167.0776062 C-9.0650708 166.94943512 -8.1902002 166.82126404 -7.28881836 166.68920898 C-6.52854843 166.5794725 -5.7682785 166.46973602 -4.98497009 166.35667419 C-2.80013943 166.01308183 -2.80013943 166.01308183 0 165 C0 141.57 0 118.14 0 94 C-3.55305616 94 -6.95095311 94.53155847 -10.453125 95.06640625 Z M-290 183 C-290.70793701 183.47195801 -291.41587402 183.94391602 -292.14526367 184.43017578 C-293.70034907 185.46689938 -295.25543673 186.50361961 -296.81056213 187.5402832 C-299.84633648 189.56400721 -302.88186975 191.58809136 -305.91699219 193.61279297 C-311.49337913 197.33228459 -317.07074302 201.05009446 -322.66015625 204.75 C-331.88371243 210.86127052 -341.03954109 217.05985653 -350.125 223.375 C-351.04893555 224.01711426 -351.97287109 224.65922852 -352.92480469 225.32080078 C-361.36818804 231.21411794 -369.71310191 237.24202831 -377.9375 243.4375 C-378.92105469 244.17742187 -379.90460938 244.91734375 -380.91796875 245.6796875 C-381.93503906 246.44539063 -382.95210938 247.21109375 -384 248 C-386.24930163 249.68843177 -388.49963747 251.37548258 -390.75 253.0625 C-392.25820313 254.19365234 -392.25820313 254.19365234 -393.796875 255.34765625 C-394.52390625 255.89292969 -395.2509375 256.43820312 -396 257 C-394.46043866 260.65881177 -392.25910943 262.9829179 -389.45849609 265.76855469 C-388.99978622 266.22755661 -388.54107635 266.68655853 -388.06846619 267.1594696 C-386.5581509 268.66839675 -385.04088612 270.17012454 -383.5234375 271.671875 C-382.4721083 272.71947224 -381.42122115 273.76751328 -380.37075806 274.815979 C-377.60998984 277.5691252 -374.84326751 280.31621127 -372.07525635 283.06207275 C-369.24967072 285.86716916 -366.42976555 288.67796321 -363.609375 291.48828125 C-358.07845626 296.99777532 -352.54123411 302.50087877 -347 308 C-345.5852195 307.06643953 -344.17173909 306.13090868 -342.75878906 305.19458008 C-341.97151428 304.67382401 -341.1842395 304.15306793 -340.37310791 303.61653137 C-336.71394055 301.12395242 -333.23860245 298.41102206 -329.75 295.6875 C-323.21009902 290.63595575 -316.56924865 285.84383982 -309.73681641 281.19384766 C-306.36162768 278.87382055 -303.02852573 276.49381734 -299.6875 274.125 C-287.78003764 265.70655215 -275.82693944 257.40260907 -263.49414062 249.61499023 C-262.81931641 249.18516846 -262.14449219 248.75534668 -261.44921875 248.3125 C-260.85455811 247.93738281 -260.25989746 247.56226563 -259.6472168 247.17578125 C-257.90287178 245.93067 -256.47193843 244.55335529 -255 243 C-263.74606604 226.8519519 -263.74606604 226.8519519 -272.78515625 210.8671875 C-274.65767507 207.61884874 -276.48429588 204.34595434 -278.30859375 201.0703125 C-279.18946655 199.49431274 -279.18946655 199.49431274 -280.08813477 197.88647461 C-281.26605365 195.77767953 -282.43982127 193.66655952 -283.60913086 191.55297852 C-284.4174939 190.10942993 -284.4174939 190.10942993 -285.2421875 188.63671875 C-285.7254248 187.76748779 -286.20866211 186.89825684 -286.70654297 186.00268555 C-287.84679758 183.86463774 -287.84679758 183.86463774 -290 183 Z M379 184 C376.01848519 189.46216147 373.03914748 194.92546559 370.0703125 200.39453125 C363.85418447 211.83603661 357.60843338 223.24925865 350.95703125 234.4453125 C350.31121094 235.53585937 349.66539063 236.62640625 349 237.75 C348.4225 238.71421875 347.845 239.6784375 347.25 240.671875 C345.84231945 242.85326778 345.84231945 242.85326778 346 245 C347.41457832 246.23286462 347.41457832 246.23286462 349.31030273 247.42333984 C350.0362413 247.90499603 350.76217987 248.38665222 351.51011658 248.88290405 C352.30986404 249.40365509 353.10961151 249.92440613 353.93359375 250.4609375 C354.75892105 251.00674469 355.58424835 251.55255188 356.43458557 252.11489868 C359.09796501 253.87482506 361.767342 255.62537867 364.4375 257.375 C367.89699539 259.64992235 371.35379273 261.92889278 374.80859375 264.2109375 C375.66415863 264.77584396 376.51972351 265.34075043 377.4012146 265.92277527 C385.72583485 271.44113035 393.88006363 277.18622503 402 283 C403.35436157 283.96341309 403.35436157 283.96341309 404.73608398 284.94628906 C406.82892075 286.43675536 408.91639236 287.934167 411 289.4375 C411.72493652 289.96045654 412.44987305 290.48341309 413.19677734 291.0222168 C421.24847577 296.86087023 429.13317875 302.91566104 437 309 C443.04265914 303.99744121 448.56098043 298.56822676 454.08984375 293.0078125 C455.04368954 292.05209752 455.99775941 291.09660612 456.95204163 290.1413269 C459.44153194 287.64805084 461.92800224 285.15178475 464.41381836 282.65484619 C466.95957994 280.09878491 469.50823777 277.54561495 472.05664062 274.9921875 C477.04057069 269.99758981 482.02131048 264.99982201 487 260 C485.3435037 256.42572167 483.83056126 254.87848374 480.5625 252.625 C479.58539062 251.93792969 478.60828125 251.25085938 477.6015625 250.54296875 C477.04114258 250.15028809 476.48072266 249.75760742 475.90332031 249.35302734 C471.24151824 246.03905774 466.67241632 242.59489525 462.07836914 239.18798828 C456.45014321 235.02971144 450.74270866 230.99817357 445 227 C443.39128297 225.86940554 441.78320494 224.73790127 440.17578125 223.60546875 C423.49557381 211.87319719 406.50571572 200.67949986 389.40185547 189.57519531 C387.39610384 188.25977455 385.41614134 186.91579084 383.44140625 185.5546875 C381.20123412 183.82095418 381.20123412 183.82095418 379 184 Z M-178.9609375 199.3359375 C-180.75144531 200.06683594 -180.75144531 200.06683594 -182.578125 200.8125 C-183.20138672 201.06902344 -183.82464844 201.32554687 -184.46679688 201.58984375 C-186.35911396 202.36846347 -188.25355575 203.1417083 -190.1484375 203.9140625 C-197.1688706 206.74807436 -197.1688706 206.74807436 -204 210 C-202.59424092 214.5024602 -200.82653226 218.73550381 -198.8046875 222.98828125 C-198.49577072 223.64489746 -198.18685394 224.30151367 -197.86857605 224.97802734 C-197.21166193 226.37315282 -196.55321477 227.76755733 -195.89334106 229.1612854 C-194.86880061 231.32559603 -193.84877361 233.4919831 -192.82983398 235.65893555 C-189.98282375 241.70907222 -187.12434073 247.75335982 -184.23046875 253.78125 C-183.66513428 254.96400513 -183.66513428 254.96400513 -183.08837891 256.1706543 C-182.42537895 257.55487576 -181.7574188 258.93673721 -181.08349609 260.31567383 C-179.75099529 263.09820457 -179 264.86651167 -179 268 C-180.6585612 268.8292806 -182.31714544 269.65851516 -183.97583008 270.48754883 C-185.42918186 271.21447236 -186.88213362 271.94219611 -188.3347168 272.6706543 C-191.71870666 274.3665093 -195.10589213 276.05135592 -198.51171875 277.703125 C-233.49296448 294.75906966 -265.74196914 317.63885048 -295.55737305 342.5078125 C-296.22679932 343.06597656 -296.89622559 343.62414062 -297.5859375 344.19921875 C-298.1742334 344.69252686 -298.7625293 345.18583496 -299.36865234 345.6940918 C-300.84938542 346.8794317 -302.42182164 347.94788109 -304 349 C-302.39205479 353.10248591 -299.42466886 355.74541225 -296.30078125 358.71875 C-295.1629944 359.82639468 -294.02563724 360.93448086 -292.88867188 362.04296875 C-291.09607995 363.77961149 -289.29988523 365.5120604 -287.49584961 367.23681641 C-285.75307928 368.90727753 -284.02615098 370.59284832 -282.30078125 372.28125 C-281.75504959 372.79490112 -281.20931793 373.30855225 -280.64704895 373.83776855 C-279.1496582 375.31445313 -279.1496582 375.31445313 -277 378 C-277.48797007 382.52093108 -280.57173803 385.00775252 -283.6496582 388.06958008 C-284.23834686 388.66673828 -284.82703552 389.26389648 -285.43356323 389.87915039 C-287.38151848 391.85050383 -289.34048021 393.81045904 -291.30078125 395.76953125 C-292.65770152 397.13354968 -294.01432088 398.49786752 -295.37065125 399.86247253 C-298.2144977 402.71976911 -301.06421985 405.57105147 -303.91772461 408.41870117 C-307.58010376 412.07517391 -311.22387935 415.74958922 -314.86304951 419.42914295 C-317.65878016 422.25067015 -320.4658459 425.06070122 -323.27632713 427.86752892 C-324.62513297 429.21803252 -325.96993864 430.57254323 -327.31069374 431.93103981 C-329.18287308 433.82525604 -331.07012526 435.70303619 -332.9621582 437.57739258 C-333.5166011 438.14509872 -334.07104401 438.71280487 -334.64228821 439.29771423 C-338.42785055 443.0012541 -338.42785055 443.0012541 -341.19981384 442.99517822 C-344.30135526 441.28058528 -346.63009817 438.73203087 -349.078125 436.21484375 C-349.64956238 435.63916153 -350.22099976 435.06347931 -350.80975342 434.47035217 C-352.63033802 432.63299681 -354.44020568 430.78547868 -356.25 428.9375 C-357.48368253 427.68876862 -358.71804978 426.44071331 -359.953125 425.19335938 C-362.97674655 422.1366898 -365.99079921 419.07086474 -369 416 C-404.35887362 451.07915317 -430.64191479 497.96544787 -451 543 C-457.07485127 541.24366545 -462.58923488 538.39178339 -468.25 535.625 C-477.59608134 531.102927 -486.96218544 526.63128058 -496.375 522.25 C-497.49165039 521.72486816 -498.60830078 521.19973633 -499.75878906 520.65869141 C-500.79487305 520.17835449 -501.83095703 519.69801758 -502.8984375 519.203125 C-503.81286621 518.77676758 -504.72729492 518.35041016 -505.66943359 517.91113281 C-508.04862093 516.8179438 -508.04862093 516.8179438 -511 517 C-512.61389696 520.62074275 -514.21427398 524.24731591 -515.8125 527.875 C-516.26431641 528.88820313 -516.71613281 529.90140625 -517.18164062 530.9453125 C-519.92724892 537.19808468 -522.2251979 543.40369792 -524 550 C-523.20231201 550.28085449 -522.40462402 550.56170898 -521.58276367 550.85107422 C-502.99226565 557.40366986 -484.46157361 564.09137377 -466 571 C-466.69201853 574.90995004 -467.77704695 578.55740188 -469.0390625 582.3203125 C-469.4513208 583.56409668 -469.8635791 584.80788086 -470.28833008 586.08935547 C-470.50647369 586.74659607 -470.72461731 587.40383667 -470.94937134 588.08099365 C-482.78143691 623.8770137 -490.30409456 660.51557201 -494.75 697.9375 C-494.87777832 698.99702881 -495.00555664 700.05655762 -495.13720703 701.14819336 C-495.25177246 702.16018799 -495.36633789 703.17218262 -495.484375 704.21484375 C-495.58459961 705.09261475 -495.68482422 705.97038574 -495.78808594 706.87475586 C-496.08410689 711.24038278 -496 715.62434841 -496 720 C-482.47 720 -468.94 720 -455 720 C-455 750.03 -455 780.06 -455 811 C-468.53 811 -482.06 811 -496 811 C-495.2610798 822.77611339 -495.2610798 822.77611339 -493.984375 834.42578125 C-493.88852615 835.1330687 -493.79267731 835.84035614 -493.69392395 836.56907654 C-493.38617147 838.81790666 -493.06929259 841.06528118 -492.75 843.3125 C-492.64017792 844.09347046 -492.53035583 844.87444092 -492.41720581 845.67907715 C-486.87450124 884.91418746 -477.32479353 923.01347523 -463 960 C-464.18078125 960.38800781 -465.3615625 960.77601563 -466.578125 961.17578125 C-473.33163881 963.42827054 -480.04041687 965.80814682 -486.75 968.1875 C-487.76648117 968.54758652 -487.76648117 968.54758652 -488.80349731 968.91494751 C-500.60454322 973.09999296 -512.33054881 977.45971185 -524 982 C-522.00649327 989.27206015 -519.40796705 996.10244589 -516.375 1003 C-515.76398438 1004.40958984 -515.76398438 1004.40958984 -515.140625 1005.84765625 C-513.15200504 1010.46169925 -513.15200504 1010.46169925 -511 1015 C-506.4975398 1013.59424092 -502.26449619 1011.82653226 -498.01171875 1009.8046875 C-497.35510254 1009.49577072 -496.69848633 1009.18685394 -496.02197266 1008.86857605 C-494.62684718 1008.21166193 -493.23244267 1007.55321477 -491.8387146 1006.89334106 C-489.67440397 1005.86880061 -487.5080169 1004.84877361 -485.34106445 1003.82983398 C-479.29092778 1000.98282375 -473.24664018 998.12434073 -467.21875 995.23046875 C-466.43024658 994.8535791 -465.64174316 994.47668945 -464.8293457 994.08837891 C-463.44512424 993.42537895 -462.06326279 992.7574188 -460.68432617 992.08349609 C-457.90179543 990.75099529 -456.13348833 990 -453 990 C-452.1707194 991.6585612 -451.34148484 993.31714544 -450.51245117 994.97583008 C-449.78552764 996.42918186 -449.05780389 997.88213362 -448.3293457 999.3347168 C-446.6334907 1002.71870666 -444.94864408 1006.10589213 -443.296875 1009.51171875 C-426.24093034 1044.49296448 -403.36114952 1076.74196914 -378.4921875 1106.55737305 C-377.93402344 1107.22679932 -377.37585938 1107.89622559 -376.80078125 1108.5859375 C-376.30747314 1109.1742334 -375.81416504 1109.7625293 -375.3059082 1110.36865234 C-374.1205683 1111.84938542 -373.05211891 1113.42182164 -372 1115 C-367.89751409 1113.39205479 -365.25458775 1110.42466886 -362.28125 1107.30078125 C-361.17360532 1106.1629944 -360.06551914 1105.02563724 -358.95703125 1103.88867188 C-357.22038851 1102.09607995 -355.4879396 1100.29988523 -353.76318359 1098.49584961 C-352.09272247 1096.75307928 -350.40715168 1095.02615098 -348.71875 1093.30078125 C-348.20509888 1092.75504959 -347.69144775 1092.20931793 -347.16223145 1091.64704895 C-345.68554687 1090.1496582 -345.68554687 1090.1496582 -343 1088 C-338.47906892 1088.48797007 -335.99224748 1091.57173803 -332.93041992 1094.6496582 C-332.33326172 1095.23834686 -331.73610352 1095.82703552 -331.12084961 1096.43356323 C-329.14949617 1098.38151848 -327.18954096 1100.34048021 -325.23046875 1102.30078125 C-323.86645032 1103.65770152 -322.50213248 1105.01432088 -321.13752747 1106.37065125 C-318.28023089 1109.2144977 -315.42894853 1112.06421985 -312.58129883 1114.91772461 C-308.92482609 1118.58010376 -305.25041078 1122.22387935 -301.57085705 1125.86304951 C-298.74932985 1128.65878016 -295.93929878 1131.4658459 -293.13247108 1134.27632713 C-291.78196748 1135.62513297 -290.42745677 1136.96993864 -289.06896019 1138.31069374 C-287.17474396 1140.18287308 -285.29696381 1142.07012526 -283.42260742 1143.9621582 C-282.5710482 1144.79382256 -282.5710482 1144.79382256 -281.70228577 1145.64228821 C-277.9987459 1149.42785055 -277.9987459 1149.42785055 -278.00482178 1152.19981384 C-279.71941472 1155.30135526 -282.26796913 1157.63009817 -284.78515625 1160.078125 C-285.64867958 1160.93528107 -285.64867958 1160.93528107 -286.52964783 1161.80975342 C-288.36700319 1163.63033802 -290.21452132 1165.44020568 -292.0625 1167.25 C-293.31123138 1168.48368253 -294.55928669 1169.71804978 -295.80664062 1170.953125 C-298.8633102 1173.97674655 -301.92913526 1176.99079921 -305 1180 C-269.92084683 1215.35887362 -223.03455213 1241.64191479 -178 1262 C-179.75633455 1268.07485127 -182.60821661 1273.58923488 -185.375 1279.25 C-189.897073 1288.59608134 -194.36871942 1297.96218544 -198.75 1307.375 C-199.53769775 1309.04997559 -199.53769775 1309.04997559 -200.34130859 1310.75878906 C-201.06181396 1312.31291504 -201.06181396 1312.31291504 -201.796875 1313.8984375 C-202.22323242 1314.81286621 -202.64958984 1315.72729492 -203.08886719 1316.66943359 C-204.1820562 1319.04862093 -204.1820562 1319.04862093 -204 1322 C-200.37925725 1323.61389696 -196.75268409 1325.21427398 -193.125 1326.8125 C-192.11179687 1327.26431641 -191.09859375 1327.71613281 -190.0546875 1328.18164062 C-183.80191532 1330.92724892 -177.59630208 1333.2251979 -171 1335 C-170.71914551 1334.20231201 -170.43829102 1333.40462402 -170.14892578 1332.58276367 C-163.59633014 1313.99226565 -156.90862623 1295.46157361 -150 1277 C-146.09004996 1277.69201853 -142.44259812 1278.77704695 -138.6796875 1280.0390625 C-137.43590332 1280.4513208 -136.19211914 1280.8635791 -134.91064453 1281.28833008 C-134.25340393 1281.50647369 -133.59616333 1281.72461731 -132.91900635 1281.94937134 C-97.1229863 1293.78143691 -60.48442799 1301.30409456 -23.0625 1305.75 C-22.00297119 1305.87777832 -20.94344238 1306.00555664 -19.85180664 1306.13720703 C-18.3338147 1306.30905518 -18.3338147 1306.30905518 -16.78515625 1306.484375 C-15.90738525 1306.58459961 -15.02961426 1306.68482422 -14.12524414 1306.78808594 C-9.75961722 1307.08410689 -5.37565159 1307 -1 1307 C-1 1293.47 -1 1279.94 -1 1266 C29.03 1266 59.06 1266 90 1266 C90 1279.53 90 1293.06 90 1307 C101.77611339 1306.2610798 101.77611339 1306.2610798 113.42578125 1304.984375 C114.48671242 1304.84060173 114.48671242 1304.84060173 115.56907654 1304.69392395 C117.81790666 1304.38617147 120.06528118 1304.06929259 122.3125 1303.75 C123.48395569 1303.58526688 123.48395569 1303.58526688 124.67907715 1303.41720581 C163.91418746 1297.87450124 202.01347523 1288.32479353 239 1274 C239.38800781 1275.18078125 239.77601563 1276.3615625 240.17578125 1277.578125 C242.42827054 1284.33163881 244.80814682 1291.04041687 247.1875 1297.75 C247.42755768 1298.42765411 247.66761536 1299.10530823 247.91494751 1299.80349731 C252.09999296 1311.60454322 256.45971185 1323.33054881 261 1335 C268.27206015 1333.00649327 275.10244589 1330.40796705 282 1327.375 C282.93972656 1326.96765625 283.87945313 1326.5603125 284.84765625 1326.140625 C289.46169925 1324.15200504 289.46169925 1324.15200504 294 1322 C292.59424092 1317.4975398 290.82653226 1313.26449619 288.8046875 1309.01171875 C288.49577072 1308.35510254 288.18685394 1307.69848633 287.86857605 1307.02197266 C287.21166193 1305.62684718 286.55321477 1304.23244267 285.89334106 1302.8387146 C284.86880061 1300.67440397 283.84877361 1298.5080169 282.82983398 1296.34106445 C279.98282375 1290.29092778 277.12434073 1284.24664018 274.23046875 1278.21875 C273.8535791 1277.43024658 273.47668945 1276.64174316 273.08837891 1275.8293457 C272.42537895 1274.44512424 271.7574188 1273.06326279 271.08349609 1271.68432617 C269.75099529 1268.90179543 269 1267.13348833 269 1264 C270.6585612 1263.1707194 272.31714544 1262.34148484 273.97583008 1261.51245117 C275.42918186 1260.78552764 276.88213362 1260.05780389 278.3347168 1259.3293457 C281.71870666 1257.6334907 285.10589213 1255.94864408 288.51171875 1254.296875 C323.49296448 1237.24093034 355.74196914 1214.36114952 385.55737305 1189.4921875 C386.22679932 1188.93402344 386.89622559 1188.37585937 387.5859375 1187.80078125 C388.1742334 1187.30747314 388.7625293 1186.81416504 389.36865234 1186.3059082 C390.84938542 1185.1205683 392.42182164 1184.05211891 394 1183 C392.39205479 1178.89751409 389.42466886 1176.25458775 386.30078125 1173.28125 C385.1629944 1172.17360532 384.02563724 1171.06551914 382.88867188 1169.95703125 C381.09607995 1168.22038851 379.29988523 1166.4879396 377.49584961 1164.76318359 C375.75307928 1163.09272247 374.02615098 1161.40715168 372.30078125 1159.71875 C371.48218376 1158.94827332 371.48218376 1158.94827332 370.64704895 1158.16223145 C369.1496582 1156.68554688 369.1496582 1156.68554688 367 1154 C367.48797007 1149.47906892 370.57173803 1146.99224748 373.6496582 1143.93041992 C374.23834686 1143.33326172 374.82703552 1142.73610352 375.43356323 1142.12084961 C377.38151848 1140.14949617 379.34048021 1138.18954096 381.30078125 1136.23046875 C382.65770152 1134.86645032 384.01432088 1133.50213248 385.37065125 1132.13752747 C388.2144977 1129.28023089 391.06421985 1126.42894853 393.91772461 1123.58129883 C397.58010376 1119.92482609 401.22387935 1116.25041078 404.86304951 1112.57085705 C407.65878016 1109.74932985 410.4658459 1106.93929878 413.27632713 1104.13247108 C414.62513297 1102.78196748 415.96993864 1101.42745677 417.31069374 1100.06896019 C419.18287308 1098.17474396 421.07012526 1096.29696381 422.9621582 1094.42260742 C423.5166011 1093.85490128 424.07104401 1093.28719513 424.64228821 1092.70228577 C428.42785055 1088.9987459 428.42785055 1088.9987459 431.19981384 1089.00482178 C434.30135526 1090.71941472 436.63009817 1093.26796913 439.078125 1095.78515625 C439.64956238 1096.36083847 440.22099976 1096.93652069 440.80975342 1097.52964783 C442.63033802 1099.36700319 444.44020568 1101.21452132 446.25 1103.0625 C447.48368253 1104.31123138 448.71804978 1105.55928669 449.953125 1106.80664062 C452.97674655 1109.8633102 455.99079921 1112.92913526 459 1116 C494.35887362 1080.92084683 520.64191479 1034.03455213 541 989 C547.07485127 990.75633455 552.58923488 993.60821661 558.25 996.375 C567.59608134 1000.897073 576.96218544 1005.36871942 586.375 1009.75 C588.04997559 1010.53769775 588.04997559 1010.53769775 589.75878906 1011.34130859 C591.31291504 1012.06181396 591.31291504 1012.06181396 592.8984375 1012.796875 C593.81286621 1013.22323242 594.72729492 1013.64958984 595.66943359 1014.08886719 C598.04862093 1015.1820562 598.04862093 1015.1820562 601 1015 C602.61389696 1011.37925725 604.21427398 1007.75268409 605.8125 1004.125 C606.26431641 1003.11179687 606.71613281 1002.09859375 607.18164062 1001.0546875 C609.92724892 994.80191532 612.2251979 988.59630208 614 982 C613.20231201 981.71914551 612.40462402 981.43829102 611.58276367 981.14892578 C592.99226565 974.59633014 574.46157361 967.90862623 556 961 C556.69201853 957.09004996 557.77704695 953.44259812 559.0390625 949.6796875 C559.4513208 948.43590332 559.8635791 947.19211914 560.28833008 945.91064453 C560.50647369 945.25340393 560.72461731 944.59616333 560.94937134 943.91900635 C572.78143691 908.1229863 580.30409456 871.48442799 584.75 834.0625 C584.87777832 833.00297119 585.00555664 831.94344238 585.13720703 830.85180664 C585.25177246 829.83981201 585.36633789 828.82781738 585.484375 827.78515625 C585.58459961 826.90738525 585.68482422 826.02961426 585.78808594 825.12524414 C586.08410689 820.75961722 586 816.37565159 586 812 C572.47 812 558.94 812 545 812 C545 781.97 545 751.94 545 721 C558.53 721 572.06 721 586 721 C585.2610798 709.22388661 585.2610798 709.22388661 583.984375 697.57421875 C583.84060173 696.51328758 583.84060173 696.51328758 583.69392395 695.43092346 C583.38617147 693.18209334 583.06929259 690.93471882 582.75 688.6875 C582.58526688 687.51604431 582.58526688 687.51604431 582.41720581 686.32092285 C576.87450124 647.08581254 567.32479353 608.98652477 553 572 C554.18078125 571.61199219 555.3615625 571.22398437 556.578125 570.82421875 C563.33163881 568.57172946 570.04041687 566.19185318 576.75 563.8125 C577.42765411 563.57244232 578.10530823 563.33238464 578.80349731 563.08505249 C590.60454322 558.90000704 602.33054881 554.54028815 614 550 C612.00649327 542.72793985 609.40796705 535.89755411 606.375 529 C605.96765625 528.06027344 605.5603125 527.12054687 605.140625 526.15234375 C603.15200504 521.53830075 603.15200504 521.53830075 601 517 C596.4975398 518.40575908 592.26449619 520.17346774 588.01171875 522.1953125 C587.35510254 522.50422928 586.69848633 522.81314606 586.02197266 523.13142395 C584.62684718 523.78833807 583.23244267 524.44678523 581.8387146 525.10665894 C579.67440397 526.13119939 577.5080169 527.15122639 575.34106445 528.17016602 C569.29092778 531.01717625 563.24664018 533.87565927 557.21875 536.76953125 C556.43024658 537.1464209 555.64174316 537.52331055 554.8293457 537.91162109 C553.44512424 538.57462105 552.06326279 539.2425812 550.68432617 539.91650391 C547.90179543 541.24900471 546.13348833 542 543 542 C542.1707194 540.3414388 541.34148484 538.68285456 540.51245117 537.02416992 C539.78552764 535.57081814 539.05780389 534.11786638 538.3293457 532.6652832 C536.6334907 529.28129334 534.94864408 525.89410787 533.296875 522.48828125 C516.24093034 487.50703552 493.36114952 455.25803086 468.4921875 425.44262695 C467.93402344 424.77320068 467.37585937 424.10377441 466.80078125 423.4140625 C466.30747314 422.8257666 465.81416504 422.2374707 465.3059082 421.63134766 C464.1205683 420.15061458 463.05211891 418.57817836 462 417 C457.89751409 418.60794521 455.25458775 421.57533114 452.28125 424.69921875 C451.17360532 425.8370056 450.06551914 426.97436276 448.95703125 428.11132812 C447.22038851 429.90392005 445.4879396 431.70011477 443.76318359 433.50415039 C442.09272247 435.24692072 440.40715168 436.97384902 438.71875 438.69921875 C437.94827332 439.51781624 437.94827332 439.51781624 437.16223145 440.35295105 C435.68554688 441.8503418 435.68554688 441.8503418 433 444 C428.47906892 443.51202993 425.99224748 440.42826197 422.93041992 437.3503418 C422.33326172 436.76165314 421.73610352 436.17296448 421.12084961 435.56643677 C419.14949617 433.61848152 417.18954096 431.65951979 415.23046875 429.69921875 C413.86645032 428.34229848 412.50213248 426.98567912 411.13752747 425.62934875 C408.28023089 422.7855023 405.42894853 419.93578015 402.58129883 417.08227539 C398.92482609 413.41989624 395.25041078 409.77612065 391.57085705 406.13695049 C388.74932985 403.34121984 385.93929878 400.5341541 383.13247108 397.72367287 C381.78196748 396.37486703 380.42745677 395.03006136 379.06896019 393.68930626 C377.17474396 391.81712692 375.29696381 389.92987474 373.42260742 388.0378418 C372.85490128 387.4833989 372.28719513 386.92895599 371.70228577 386.35771179 C367.9987459 382.57214945 367.9987459 382.57214945 368.00482178 379.80018616 C369.71941472 376.69864474 372.26796913 374.36990183 374.78515625 371.921875 C375.36083847 371.35043762 375.93652069 370.77900024 376.52964783 370.19024658 C378.36700319 368.36966198 380.21452132 366.55979432 382.0625 364.75 C383.31123138 363.51631747 384.55928669 362.28195022 385.80664062 361.046875 C388.8633102 358.02325345 391.92913526 355.00920079 395 352 C359.92084683 316.64112638 313.03455213 290.35808521 268 270 C269.75633455 263.92514873 272.60821661 258.41076512 275.375 252.75 C279.897073 243.40391866 284.36871942 234.03781456 288.75 224.625 C289.27513184 223.50834961 289.80026367 222.39169922 290.34130859 221.24121094 C290.82164551 220.20512695 291.30198242 219.16904297 291.796875 218.1015625 C292.22323242 217.18713379 292.64958984 216.27270508 293.08886719 215.33056641 C294.1820562 212.95137907 294.1820562 212.95137907 294 210 C290.37925725 208.38610304 286.75268409 206.78572602 283.125 205.1875 C282.11179687 204.73568359 281.09859375 204.28386719 280.0546875 203.81835938 C273.80191532 201.07275108 267.59630208 198.7748021 261 197 C260.71914551 197.79768799 260.43829102 198.59537598 260.14892578 199.41723633 C253.59633014 218.00773435 246.90862623 236.53842639 240 255 C236.09004996 254.30798147 232.44259812 253.22295305 228.6796875 251.9609375 C227.43590332 251.5486792 226.19211914 251.1364209 224.91064453 250.71166992 C224.25340393 250.49352631 223.59616333 250.27538269 222.91900635 250.05062866 C187.1229863 238.21856309 150.48442799 230.69590544 113.0625 226.25 C111.47320679 226.05833252 111.47320679 226.05833252 109.85180664 225.86279297 C108.3338147 225.69094482 108.3338147 225.69094482 106.78515625 225.515625 C105.46849976 225.36528809 105.46849976 225.36528809 104.12524414 225.21191406 C99.75961722 224.91589311 95.37565159 225 91 225 C91 238.53 91 252.06 91 266 C60.97 266 30.94 266 0 266 C0 252.47 0 238.94 0 225 C-11.77611339 225.7389202 -11.77611339 225.7389202 -23.42578125 227.015625 C-24.1330687 227.11147385 -24.84035614 227.20732269 -25.56907654 227.30607605 C-27.81790666 227.61382853 -30.06528118 227.93070741 -32.3125 228.25 C-33.09347046 228.35982208 -33.87444092 228.46964417 -34.67907715 228.58279419 C-73.91418746 234.12549876 -112.01347523 243.67520647 -149 258 C-149.58201172 256.22882813 -149.58201172 256.22882813 -150.17578125 254.421875 C-152.42827054 247.66836119 -154.80814682 240.95958313 -157.1875 234.25 C-157.42755768 233.57234589 -157.66761536 232.89469177 -157.91494751 232.19650269 C-162.09999296 220.39545678 -166.45971185 208.66945119 -171 197 C-173.96477095 197 -176.22197175 198.21528666 -178.9609375 199.3359375 Z M-463 324 C-464.48745569 325.71180335 -465.88680965 327.50017905 -467.25 329.3125 C-467.89449097 330.16581909 -467.89449097 330.16581909 -468.55200195 331.03637695 C-470.04316127 333.01803885 -471.52236891 335.00823176 -473 337 C-473.85440674 338.14807129 -473.85440674 338.14807129 -474.72607422 339.31933594 C-480.66787869 347.3115381 -486.56322977 355.32610717 -492.2565918 363.49780273 C-493.96183854 365.94522941 -495.67668411 368.38562432 -497.39453125 370.82421875 C-509.12680281 387.50442619 -520.32050014 404.49428428 -531.42480469 421.59814453 C-532.74022545 423.60389616 -534.08420916 425.58385866 -535.4453125 427.55859375 C-537.17904582 429.79876588 -537.17904582 429.79876588 -537 432 C-531.53783853 434.98151481 -526.07453441 437.96085252 -520.60546875 440.9296875 C-509.16396339 447.14581553 -497.75074135 453.39156662 -486.5546875 460.04296875 C-484.91886719 461.01169922 -484.91886719 461.01169922 -483.25 462 C-482.28578125 462.5775 -481.3215625 463.155 -480.328125 463.75 C-478.14673222 465.15768055 -478.14673222 465.15768055 -476 465 C-474.76713538 463.58542168 -474.76713538 463.58542168 -473.57666016 461.68969727 C-473.09500397 460.9637587 -472.61334778 460.23782013 -472.11709595 459.48988342 C-471.59634491 458.69013596 -471.07559387 457.89038849 -470.5390625 457.06640625 C-469.99325531 456.24107895 -469.44744812 455.41575165 -468.88510132 454.56541443 C-467.12517494 451.90203499 -465.37462133 449.232658 -463.625 446.5625 C-461.35007765 443.10300461 -459.07110722 439.64620727 -456.7890625 436.19140625 C-455.9417028 434.90805893 -455.9417028 434.90805893 -455.07722473 433.5987854 C-449.55886965 425.27416515 -443.81377497 417.11993637 -438 409 C-437.03658691 407.64563843 -437.03658691 407.64563843 -436.05371094 406.26391602 C-434.56324464 404.17107925 -433.065833 402.08360764 -431.5625 400 C-431.03954346 399.27506348 -430.51658691 398.55012695 -429.9777832 397.80322266 C-424.13912977 389.75152423 -418.08433896 381.86682125 -412 374 C-416.99521346 367.97735496 -422.39451302 362.44432745 -427.921875 356.91015625 C-428.87265042 355.95616152 -429.82335309 355.00209429 -430.77398682 354.04795837 C-432.75234764 352.06365161 -434.73272151 350.08137957 -436.71435547 348.1003418 C-439.2571448 345.55765496 -441.79293373 343.00810461 -444.32709885 340.45682621 C-446.2813145 338.49152825 -448.24002138 336.53075535 -450.20005035 334.57125664 C-451.59351156 333.17603967 -452.98242297 331.77628344 -454.37127686 330.3764801 C-455.21265198 329.53818161 -456.0540271 328.69988312 -456.92089844 327.83618164 C-457.66225037 327.09340469 -458.40360229 326.35062775 -459.16741943 325.58534241 C-460.84823475 323.78191726 -460.84823475 323.78191726 -463 324 Z M549.89926147 326.86022949 C549.03322296 327.73070923 548.16718445 328.60118896 547.27490234 329.49804688 C546.79668533 329.97597183 546.31846832 330.45389679 545.82575989 330.94630432 C544.24103476 332.53242648 542.66351696 334.12552305 541.0859375 335.71875 C539.99063967 336.81777663 538.89490041 337.91636349 537.79873657 339.01452637 C534.91076735 341.91014249 532.02885346 344.81171395 529.14813232 347.71453857 C526.20913829 350.67396828 523.26449497 353.62776481 520.3203125 356.58203125 C514.54131026 362.38250205 508.76868875 368.18927222 503 374 C503.93356047 375.4147805 504.86909132 376.82826091 505.80541992 378.24121094 C506.32617599 379.02848572 506.84693207 379.8157605 507.38346863 380.62689209 C509.87604758 384.28605945 512.58897794 387.76139755 515.3125 391.25 C520.36404425 397.78990098 525.15616018 404.43075135 529.80615234 411.26318359 C532.12617945 414.63837232 534.50618266 417.97147427 536.875 421.3125 C545.29344785 433.21996236 553.59739093 445.17306056 561.38500977 457.50585938 C561.81483154 458.18068359 562.24465332 458.85550781 562.6875 459.55078125 C563.06261719 460.14544189 563.43773437 460.74010254 563.82421875 461.3527832 C565.06933 463.09712822 566.44664471 464.52806157 568 466 C584.14215241 457.2508574 584.14215241 457.2508574 600.12890625 448.22265625 C605.52481997 445.114287 610.95270444 442.06201674 616.375 439 C617.417771 438.410979 618.46054199 437.82195801 619.53491211 437.21508789 C622.02311589 435.80977697 624.51147409 434.40474039 627 433 C627 428.57839418 624.51688573 425.67011547 622.1875 422.0625 C621.66124023 421.23911133 621.13498047 420.41572266 620.59277344 419.56738281 C609.88313487 402.94101823 598.59162613 386.68051839 587.3125 370.4375 C586.69020508 369.5412793 586.06791016 368.64505859 585.42675781 367.72167969 C578.90666655 358.37165112 572.18001641 349.17910594 565.3125 340.08203125 C563.69226899 337.92263553 562.08851026 335.75657038 560.5 333.57421875 C560.09193115 333.01790771 559.6838623 332.46159668 559.26342773 331.88842773 C558.12083466 330.32958607 556.98408507 328.76646624 555.84765625 327.203125 C555.23792969 326.47609375 554.62820313 325.7490625 554 325 C551.78189013 324.77901652 551.78189013 324.77901652 549.89926147 326.86022949 Z M-604 590 C-606.69630909 602.66049269 -609.36580005 615.32643108 -612 628 C-612.24443848 629.17546387 -612.48887695 630.35092773 -612.74072266 631.56201172 C-615.98095375 647.32097092 -618.57681673 663.18970431 -621.1875 679.0625 C-621.36216797 680.11925934 -621.53683594 681.17601868 -621.71679688 682.26480103 C-622.22591703 685.35419377 -622.72913456 688.4444914 -623.23046875 691.53515625 C-623.45364021 692.88743317 -623.45364021 692.88743317 -623.68132019 694.26702881 C-625.05762129 702.83373714 -625.98283619 711.3541076 -627 720 C-603.57 720 -580.14 720 -556 720 C-554.27194969 710.2077149 -552.58173833 700.45685181 -551.10986328 690.63061523 C-548.04338177 670.31113443 -544.24706768 650.15881195 -540.25170898 630.00268555 C-540.03678299 628.91062805 -539.82185699 627.81857056 -539.60041809 626.69342041 C-539.19504206 624.63613086 -538.78559137 622.5796385 -538.37138367 620.52410889 C-538.19033585 619.6047052 -538.00928802 618.68530151 -537.82275391 617.73803711 C-537.66320221 616.93998154 -537.50365051 616.14192596 -537.33926392 615.31968689 C-536.97797947 612.84943657 -536.94183124 610.4930235 -537 608 C-537.96486328 607.73372803 -538.92972656 607.46745605 -539.92382812 607.19311523 C-544.44981506 605.94339582 -548.9749795 604.69071355 -553.5 603.4375 C-554.31600677 603.21168243 -555.13201355 602.98586487 -555.9727478 602.75320435 C-567.23988377 599.63299117 -578.48612475 596.45997708 -589.67578125 593.07006836 C-590.990625 592.67766968 -590.990625 592.67766968 -592.33203125 592.27734375 C-593.07171143 592.05296631 -593.8113916 591.82858887 -594.57348633 591.59741211 C-597.6896788 590.83019982 -600.8201074 590.41645196 -604 590 Z M685.0625 592.94140625 C684.35815323 593.14458969 683.65380646 593.34777313 682.92811584 593.55711365 C681.40922568 593.99528958 679.89064654 594.43454474 678.37234497 594.87475586 C665.22807843 598.68528612 652.0686904 602.39968726 638.82226562 605.84204102 C637.84064453 606.10041748 636.85902344 606.35879395 635.84765625 606.625 C634.5793396 606.95371094 634.5793396 606.95371094 633.28540039 607.2890625 C631.03270473 607.98982628 629.09293188 608.92312309 627 610 C627.61515325 616.20295636 628.54171524 622.22700731 629.78515625 628.33203125 C630.15167675 630.17728282 630.51753087 632.02266685 630.8828125 633.86816406 C631.07520508 634.83596802 631.26759766 635.80377197 631.46582031 636.80090332 C635.73117028 658.32922757 639.29862255 679.92106781 642.52368164 701.62817383 C642.68369156 702.70233047 642.84370148 703.77648712 643.00856018 704.88319397 C643.30770865 706.89913068 643.60396142 708.91549996 643.89683533 710.93235779 C644.02820389 711.82318558 644.15957245 712.71401337 644.29492188 713.63183594 C644.40767456 714.40718689 644.52042725 715.18253784 644.63659668 715.98138428 C644.98528023 718.19440581 644.98528023 718.19440581 646 721 C669.43 721 692.86 721 717 721 C715.14710709 706.79448773 713.29410992 692.63417598 711 678.5 C710.85881744 677.6249884 710.71763489 676.74997681 710.57217407 675.84844971 C705.9537513 647.4261709 700.32494368 619.09194856 694 591 C690.89013877 591 688.02694639 592.07544579 685.0625 592.94140625 Z M-627 811 C-625.14710709 825.20551227 -623.29410992 839.36582402 -621 853.5 C-620.85881744 854.3750116 -620.71763489 855.25002319 -620.57217407 856.15155029 C-615.9537513 884.5738291 -610.32494368 912.90805144 -604 941 C-592.56428593 938.20690047 -581.2107139 935.17294384 -569.875 932 C-568.33208232 931.57012915 -566.78911366 931.14044125 -565.24609375 930.7109375 C-556.15354905 928.17705657 -547.07211859 925.60607298 -538 923 C-536.30662985 917.82682501 -537.72591377 913.12752414 -538.80859375 907.96484375 C-539.2269062 905.8782264 -539.64494359 903.79155389 -540.06274414 901.70483398 C-540.28705109 900.60211151 -540.51135803 899.49938904 -540.74246216 898.36325073 C-545.33965702 875.70427776 -549.18709929 852.98782002 -552.57397461 830.11889648 C-552.81046219 828.52561523 -552.81046219 828.52561523 -553.05172729 826.90014648 C-553.34520912 824.91389036 -553.63561413 822.92717627 -553.9223938 820.93994141 C-554.05056488 820.0650708 -554.17873596 819.1902002 -554.31079102 818.28881836 C-554.4205275 817.52854843 -554.53026398 816.7682785 -554.64332581 815.98497009 C-554.98691817 813.80013943 -554.98691817 813.80013943 -556 811 C-579.43 811 -602.86 811 -627 811 Z M646 812 C644.27194969 821.7922851 642.58173833 831.54314819 641.10986328 841.36938477 C638.04338177 861.68886557 634.24706768 881.84118805 630.25170898 901.99731445 C629.92931999 903.6354007 629.92931999 903.6354007 629.60041809 905.30657959 C629.19504206 907.36386914 628.78559137 909.4203615 628.37138367 911.47589111 C628.19033585 912.3952948 628.00928802 913.31469849 627.82275391 914.26196289 C627.66320221 915.06001846 627.50365051 915.85807404 627.33926392 916.68031311 C626.97797947 919.15056343 626.94183124 921.5069765 627 924 C627.96486328 924.26627197 628.92972656 924.53254395 629.92382812 924.80688477 C634.44981506 926.05660418 638.9749795 927.30928645 643.5 928.5625 C644.31600677 928.78831757 645.13201355 929.01413513 645.9727478 929.24679565 C657.23988377 932.36700883 668.48612475 935.54002292 679.67578125 938.92993164 C680.990625 939.32233032 680.990625 939.32233032 682.33203125 939.72265625 C683.07171143 939.94703369 683.8113916 940.17141113 684.57348633 940.40258789 C687.6896788 941.16980018 690.8201074 941.58354804 694 942 C696.69630909 929.33950731 699.36580005 916.67356892 702 904 C702.24443848 902.82453613 702.48887695 901.64907227 702.74072266 900.43798828 C705.98095375 884.67902908 708.57681673 868.81029569 711.1875 852.9375 C711.36216797 851.88074066 711.53683594 850.82398132 711.71679688 849.73519897 C712.22591703 846.64580623 712.72913456 843.5555086 713.23046875 840.46484375 C713.45364021 839.11256683 713.45364021 839.11256683 713.68132019 837.73297119 C715.05762129 829.16626286 715.98283619 820.6458924 717 812 C693.57 812 670.14 812 646 812 Z M-478 1066 C-494.14215241 1074.7491426 -494.14215241 1074.7491426 -510.12890625 1083.77734375 C-515.52481997 1086.885713 -520.95270444 1089.93798326 -526.375 1093 C-527.417771 1093.589021 -528.46054199 1094.17804199 -529.53491211 1094.78491211 C-532.02311589 1096.19022303 -534.51147409 1097.59525961 -537 1099 C-537 1103.42160582 -534.51688573 1106.32988453 -532.1875 1109.9375 C-531.39811035 1111.17258301 -531.39811035 1111.17258301 -530.59277344 1112.43261719 C-519.88313487 1129.05898177 -508.59162613 1145.31948161 -497.3125 1161.5625 C-496.69020508 1162.4587207 -496.06791016 1163.35494141 -495.42675781 1164.27832031 C-489.61999868 1172.60540678 -483.67075386 1180.8288823 -477.5625 1188.9375 C-476.45261719 1190.41283203 -476.45261719 1190.41283203 -475.3203125 1191.91796875 C-474.55460937 1192.93503906 -473.78890625 1193.95210937 -473 1195 C-471.31156823 1197.24930163 -469.62451742 1199.49963747 -467.9375 1201.75 C-466.80634766 1203.25820312 -466.80634766 1203.25820312 -465.65234375 1204.796875 C-465.10707031 1205.52390625 -464.56179688 1206.2509375 -464 1207 C-460.34118823 1205.46043866 -458.0170821 1203.25910943 -455.23144531 1200.45849609 C-454.77244339 1199.99978622 -454.31344147 1199.54107635 -453.8405304 1199.06846619 C-452.33160325 1197.5581509 -450.82987546 1196.04088612 -449.328125 1194.5234375 C-448.28052776 1193.4721083 -447.23248672 1192.42122115 -446.184021 1191.37075806 C-443.4308748 1188.60998984 -440.68378873 1185.84326751 -437.93792725 1183.07525635 C-435.13283084 1180.24967072 -432.32203679 1177.42976555 -429.51171875 1174.609375 C-424.00222468 1169.07845626 -418.49912123 1163.54123411 -413 1158 C-413.93356047 1156.5852195 -414.86909132 1155.17173909 -415.80541992 1153.75878906 C-416.32617599 1152.97151428 -416.84693207 1152.1842395 -417.38346863 1151.37310791 C-419.87604758 1147.71394055 -422.58897794 1144.23860245 -425.3125 1140.75 C-430.36404425 1134.21009902 -435.15616018 1127.56924865 -439.80615234 1120.73681641 C-442.12617945 1117.36162768 -444.50618266 1114.02852573 -446.875 1110.6875 C-455.29344785 1098.78003764 -463.59739093 1086.82693944 -471.38500977 1074.49414062 C-471.81483154 1073.81931641 -472.24465332 1073.14449219 -472.6875 1072.44921875 C-473.06261719 1071.85455811 -473.43773437 1071.25989746 -473.82421875 1070.6472168 C-475.06933 1068.90287178 -476.44664471 1067.47193843 -478 1066 Z M566 1067 C564.76713538 1068.41457832 564.76713538 1068.41457832 563.57666016 1070.31030273 C563.09500397 1071.0362413 562.61334778 1071.76217987 562.11709595 1072.51011658 C561.59634491 1073.30986404 561.07559387 1074.10961151 560.5390625 1074.93359375 C559.99325531 1075.75892105 559.44744812 1076.58424835 558.88510132 1077.43458557 C557.12517494 1080.09796501 555.37462133 1082.767342 553.625 1085.4375 C551.35007765 1088.89699539 549.07110722 1092.35379273 546.7890625 1095.80859375 C546.22415604 1096.66415863 545.65924957 1097.51972351 545.07722473 1098.4012146 C539.55886965 1106.72583485 533.81377497 1114.88006363 528 1123 C527.35772461 1123.90290771 526.71544922 1124.80581543 526.05371094 1125.73608398 C524.56324464 1127.82892075 523.065833 1129.91639236 521.5625 1132 C521.03954346 1132.72493652 520.51658691 1133.44987305 519.9777832 1134.19677734 C514.13912977 1142.24847577 508.08433896 1150.13317875 502 1158 C507.00255879 1164.04265914 512.43177324 1169.56098043 517.9921875 1175.08984375 C518.94790248 1176.04368954 519.90339388 1176.99775941 520.8586731 1177.95204163 C523.35194916 1180.44153194 525.84821525 1182.92800224 528.34515381 1185.41381836 C530.90121509 1187.95957994 533.45438505 1190.50823777 536.0078125 1193.05664062 C541.00241019 1198.04057069 546.00017799 1203.02131048 551 1208 C554.57427833 1206.3435037 556.12151626 1204.83056126 558.375 1201.5625 C559.06207031 1200.58539062 559.74914063 1199.60828125 560.45703125 1198.6015625 C560.84971191 1198.04114258 561.24239258 1197.48072266 561.64697266 1196.90332031 C564.96094226 1192.24151824 568.40510475 1187.67241632 571.81201172 1183.07836914 C575.97028856 1177.45014321 580.00182643 1171.74270866 584 1166 C585.13059446 1164.39128297 586.26209873 1162.78320494 587.39453125 1161.17578125 C599.12680281 1144.49557381 610.32050014 1127.50571572 621.42480469 1110.40185547 C622.74022545 1108.39610384 624.08420916 1106.41614134 625.4453125 1104.44140625 C627.17904582 1102.20123412 627.17904582 1102.20123412 627 1100 C621.53783853 1097.01848519 616.07453441 1094.03914748 610.60546875 1091.0703125 C599.16396339 1084.85418447 587.75074135 1078.60843338 576.5546875 1071.95703125 C575.46414063 1071.31121094 574.37359375 1070.66539063 573.25 1070 C572.28578125 1069.4225 571.3215625 1068.845 570.328125 1068.25 C568.14673222 1066.84231945 568.14673222 1066.84231945 566 1067 Z M-349.98048401 1224.86022949 C-350.84874313 1225.73070923 -351.71700226 1226.60118896 -352.61157227 1227.49804688 C-353.08964325 1227.97597183 -353.56771423 1228.45389679 -354.06027222 1228.94630432 C-355.6480304 1230.53476205 -357.23221227 1232.12673825 -358.81640625 1233.71875 C-359.91335157 1234.81755936 -361.01051713 1235.91614889 -362.1078949 1237.01452637 C-365.00187426 1239.91233207 -367.8928387 1242.8131278 -370.78320312 1245.71453857 C-373.73062042 1248.67216749 -376.68085479 1251.62698334 -379.63085938 1254.58203125 C-385.42334697 1260.38525823 -391.21265522 1266.19164429 -397 1272 C-395.3435037 1275.57427833 -393.83056126 1277.12151626 -390.5625 1279.375 C-389.58539063 1280.06207031 -388.60828125 1280.74914063 -387.6015625 1281.45703125 C-387.04114258 1281.84971191 -386.48072266 1282.24239258 -385.90332031 1282.64697266 C-381.24151824 1285.96094226 -376.67241632 1289.40510475 -372.07836914 1292.81201172 C-366.45014321 1296.97028856 -360.74270866 1301.00182643 -355 1305 C-353.39128297 1306.13059446 -351.78320494 1307.26209873 -350.17578125 1308.39453125 C-333.49557381 1320.12680281 -316.50571572 1331.32050014 -299.40185547 1342.42480469 C-297.39610384 1343.74022545 -295.41614134 1345.08420916 -293.44140625 1346.4453125 C-291.20123412 1348.17904582 -291.20123412 1348.17904582 -289 1348 C-286.01848519 1342.53783853 -283.03914748 1337.07453441 -280.0703125 1331.60546875 C-273.85418447 1320.16396339 -267.60843338 1308.75074135 -260.95703125 1297.5546875 C-259.98830078 1295.91886719 -259.98830078 1295.91886719 -259 1294.25 C-258.4225 1293.28578125 -257.845 1292.3215625 -257.25 1291.328125 C-255.84231945 1289.14673222 -255.84231945 1289.14673222 -256 1287 C-257.41457832 1285.76713538 -257.41457832 1285.76713538 -259.31030273 1284.57666016 C-260.0362413 1284.09500397 -260.76217987 1283.61334778 -261.51011658 1283.11709595 C-262.30986404 1282.59634491 -263.10961151 1282.07559387 -263.93359375 1281.5390625 C-264.75892105 1280.99325531 -265.58424835 1280.44744812 -266.43458557 1279.88510132 C-269.09796501 1278.12517494 -271.767342 1276.37462133 -274.4375 1274.625 C-277.89699539 1272.35007765 -281.35379273 1270.07110722 -284.80859375 1267.7890625 C-286.09194107 1266.9417028 -286.09194107 1266.9417028 -287.4012146 1266.07722473 C-295.72583485 1260.55886965 -303.88006363 1254.81377497 -312 1249 C-312.90290771 1248.35772461 -313.80581543 1247.71544922 -314.73608398 1247.05371094 C-316.82891961 1245.56324545 -318.91630506 1244.06570935 -321 1242.5625 C-321.72566162 1242.03954346 -322.45132324 1241.51658691 -323.19897461 1240.9777832 C-329.48447808 1236.42331592 -335.65512904 1231.72499121 -341.78320312 1226.96118164 C-345.84009743 1222.87602888 -345.84009743 1222.87602888 -349.98048401 1224.86022949 Z M430.625 1228.125 C418.67238305 1237.41579219 406.47787186 1246.42662778 394 1255 C391.95830724 1256.41662907 389.91664287 1257.83329903 387.875 1259.25 C386.18302392 1260.4195352 384.49047262 1261.58823441 382.79785156 1262.75683594 C380.93353972 1264.04595542 379.07220072 1265.33929607 377.2109375 1266.6328125 C369.40400635 1272.04365287 361.52763514 1277.31252046 353.49511719 1282.38427734 C352.8199707 1282.81434082 352.14482422 1283.2444043 351.44921875 1283.6875 C350.85455811 1284.06261719 350.25989746 1284.43773437 349.6472168 1284.82421875 C347.90287178 1286.06933 346.47193843 1287.44664471 345 1289 C353.7491426 1305.14215241 353.7491426 1305.14215241 362.77734375 1321.12890625 C365.885713 1326.52481997 368.93798326 1331.95270444 372 1337.375 C372.589021 1338.417771 373.17804199 1339.46054199 373.78491211 1340.53491211 C375.19022303 1343.02311589 376.59525961 1345.51147409 378 1348 C382.42160582 1348 385.32988453 1345.51688573 388.9375 1343.1875 C390.17258301 1342.39811035 390.17258301 1342.39811035 391.43261719 1341.59277344 C408.05898177 1330.88313487 424.31948161 1319.59162613 440.5625 1308.3125 C441.4587207 1307.69020508 442.35494141 1307.06791016 443.27832031 1306.42675781 C451.60540678 1300.61999868 459.8288823 1294.67075386 467.9375 1288.5625 C469.41283203 1287.45261719 469.41283203 1287.45261719 470.91796875 1286.3203125 C471.93503906 1285.55460937 472.95210937 1284.78890625 474 1284 C476.24930163 1282.31156823 478.49963747 1280.62451742 480.75 1278.9375 C481.75546875 1278.18339844 482.7609375 1277.42929688 483.796875 1276.65234375 C484.52390625 1276.10707031 485.2509375 1275.56179688 486 1275 C484.46105711 1271.34771612 482.26576756 1269.01804059 479.47436523 1266.23144531 C479.01726166 1265.77244339 478.56015808 1265.31344147 478.08920288 1264.8405304 C476.58383542 1263.33147141 475.07141304 1261.82971056 473.55859375 1260.328125 C472.50973159 1259.28045526 471.46123917 1258.23241525 470.4131012 1257.184021 C468.21964316 1254.99212481 466.02287221 1252.80362351 463.82348633 1250.61767578 C460.99800935 1247.80924065 458.17921267 1244.99421481 455.36262417 1242.17686844 C453.20029455 1240.01481 451.03537443 1237.85536183 448.86955452 1235.69680023 C447.82869318 1234.65912992 446.7884442 1233.620845 445.74880791 1232.58194733 C444.30046944 1231.13576484 442.84845006 1229.69327153 441.39624023 1228.25097656 C440.5695433 1227.42809143 439.74284637 1226.6052063 438.89109802 1225.75738525 C435.39064829 1222.50443979 434.04642892 1225.44473704 430.625 1228.125 Z M-113 1348 C-113.26627197 1348.96486328 -113.53254395 1349.92972656 -113.80688477 1350.92382812 C-115.05660418 1355.44981506 -116.30928645 1359.9749795 -117.5625 1364.5 C-117.78831757 1365.31600677 -118.01413513 1366.13201355 -118.24679565 1366.9727478 C-121.36700883 1378.23988377 -124.54002292 1389.48612475 -127.92993164 1400.67578125 C-128.32233032 1401.990625 -128.32233032 1401.990625 -128.72265625 1403.33203125 C-128.94703369 1404.07171143 -129.17141113 1404.8113916 -129.40258789 1405.57348633 C-130.16980018 1408.6896788 -130.58354804 1411.8201074 -131 1415 C-118.33950731 1417.69630909 -105.67356892 1420.36580005 -93 1423 C-91.82453613 1423.24443848 -90.64907227 1423.48887695 -89.43798828 1423.74072266 C-73.67902908 1426.98095375 -57.81029569 1429.57681673 -41.9375 1432.1875 C-40.88074066 1432.36216797 -39.82398132 1432.53683594 -38.73519897 1432.71679688 C-35.64580623 1433.22591703 -32.5555086 1433.72913456 -29.46484375 1434.23046875 C-28.56332581 1434.37924973 -27.66180786 1434.5280307 -26.73297119 1434.68132019 C-18.16626286 1436.05762129 -9.6458924 1436.98283619 -1 1438 C-1 1414.57 -1 1391.14 -1 1367 C-10.7922851 1365.27194969 -20.54314819 1363.58173833 -30.36938477 1362.10986328 C-50.68886557 1359.04338177 -70.84118805 1355.24706768 -90.99731445 1351.25170898 C-92.08937195 1351.03678299 -93.18142944 1350.82185699 -94.30657959 1350.60041809 C-96.36386914 1350.19504206 -98.4203615 1349.78559137 -100.47589111 1349.37138367 C-101.3952948 1349.19033585 -102.31469849 1349.00928802 -103.26196289 1348.82275391 C-104.06001846 1348.66320221 -104.85807404 1348.50365051 -105.68031311 1348.33926392 C-108.15056343 1347.97797947 -110.5069765 1347.94183124 -113 1348 Z M186.96484375 1349.80859375 C184.8782264 1350.2269062 182.79155389 1350.64494359 180.70483398 1351.06274414 C179.60211151 1351.28705109 178.49938904 1351.51135803 177.36325073 1351.74246216 C154.70427776 1356.33965702 131.98782002 1360.18709929 109.11889648 1363.57397461 C108.05670898 1363.731633 106.99452148 1363.88929138 105.90014648 1364.05172729 C103.91389036 1364.34520912 101.92717627 1364.63561413 99.93994141 1364.9223938 C99.0650708 1365.05056488 98.1902002 1365.17873596 97.28881836 1365.31079102 C96.14841347 1365.47539574 96.14841347 1365.47539574 94.98497009 1365.64332581 C92.80013943 1365.98691817 92.80013943 1365.98691817 90 1367 C90 1390.43 90 1413.86 90 1438 C104.20551227 1436.14710709 118.36582402 1434.29410992 132.5 1432 C133.3750116 1431.85881744 134.25002319 1431.71763489 135.15155029 1431.57217407 C163.5738291 1426.9537513 191.90805144 1421.32494368 220 1415 C217.20690047 1403.56428593 214.17294384 1392.2107139 211 1380.875 C210.57012915 1379.33208232 210.14044125 1377.78911366 209.7109375 1376.24609375 C207.17705657 1367.15354905 204.60607298 1358.07211859 202 1349 C196.82682501 1347.30662985 192.12752414 1348.72591377 186.96484375 1349.80859375 Z " fill="#C20F1C" transform="translate(742,21)"/>
<path d="M0 0 C4.29445018 1.40839495 6.87046479 3.45854776 10.125 6.5625 C13.84646533 10.03919781 17.59371692 13.36495561 21.5625 16.5625 C25.13828469 19.44848793 28.60401318 22.40444804 32 25.5 C35.41739372 28.61458668 38.9052235 31.5918662 42.5 34.5 C46.96564707 38.1126583 51.23284615 41.88893545 55.4765625 45.7578125 C58.05082358 48.04515904 60.69289489 50.21548271 63.375 52.375 C67.92700307 56.05507009 72.23252248 59.92522884 76.51464844 63.90917969 C80.64881228 67.73294676 84.9649775 71.28842028 89.3515625 74.8203125 C91.97275119 76.97757399 94.49154281 79.21311 97 81.5 C100.41739372 84.61458668 103.9052235 87.5918662 107.5 90.5 C111.96276213 94.11032442 116.22719533 97.88427929 120.46875 101.75 C123.975283 104.86691822 127.62566749 107.79314526 131.2734375 110.7421875 C134.8078484 113.66896329 138.1777652 116.75821944 141.5625 119.85546875 C144.70360371 122.61903596 148.00796293 125.12001439 151.3828125 127.58984375 C152.18332031 128.28787109 152.18332031 128.28787109 153 129 C153 129.66 153 130.32 153 131 C153.84884766 131.36931641 153.84884766 131.36931641 154.71484375 131.74609375 C157.39248258 133.21536224 159.33043612 134.97752435 161.5625 137.0625 C165.12296928 140.33018473 168.7393292 143.46479193 172.5 146.5 C176.96276213 150.11032442 181.22719533 153.88427929 185.46875 157.75 C188.0884481 160.07862053 190.7751531 162.29562947 193.5 164.5 C197.96276213 168.11032442 202.22719533 171.88427929 206.46875 175.75 C209.96633991 178.85896881 213.60676469 181.77829637 217.24609375 184.71875 C220.94082791 187.77935248 224.47649944 190.99914189 228.00390625 194.25 C229.88450675 196.04781979 229.88450675 196.04781979 232 197 C232 197.66 232 198.32 232 199 C232.59441895 199.27602051 233.18883789 199.55204102 233.80126953 199.83642578 C235.88274724 200.93794952 237.42210824 202.06503249 239.1796875 203.6171875 C239.77144775 204.13547119 240.36320801 204.65375488 240.97290039 205.18774414 C241.60059326 205.74453857 242.22828613 206.30133301 242.875 206.875 C244.22493171 208.05896864 245.57519967 209.24255399 246.92578125 210.42578125 C247.60721191 211.02471191 248.28864258 211.62364258 248.99072266 212.24072266 C251.99491744 214.87112698 255.02709935 217.4682362 258.0625 220.0625 C259.22007524 221.05335836 260.37762731 222.04424379 261.53515625 223.03515625 C262.10637207 223.52387207 262.67758789 224.01258789 263.26611328 224.51611328 C266.76352798 227.50925416 270.25766391 230.5062223 273.75244141 233.50244141 C276.65552183 235.99114291 279.5593367 238.47897552 282.46484375 240.96484375 C283.62243058 241.95568857 284.77998263 242.94657403 285.9375 243.9375 C286.50879639 244.42629639 287.08009277 244.91509277 287.66870117 245.41870117 C290.75736861 248.06495772 293.83459555 250.72346195 296.8984375 253.3984375 C298.20303597 254.53656039 299.50772257 255.67458227 300.8125 256.8125 C301.43962891 257.3600293 302.06675781 257.90755859 302.71289062 258.47167969 C306.86475681 262.07539387 311.11038745 265.4946649 315.55859375 268.73046875 C316.03425781 269.14941406 316.50992188 269.56835938 317 270 C317 270.66 317 271.32 317 272 C317.84884766 272.36931641 317.84884766 272.36931641 318.71484375 272.74609375 C321.39248258 274.21536224 323.33043612 275.97752435 325.5625 278.0625 C329.12296928 281.33018473 332.7393292 284.46479193 336.5 287.5 C340.96420457 291.11149134 345.23002114 294.88660694 349.47265625 298.75390625 C352.06962393 301.06187598 354.73404013 303.25555863 357.4375 305.4375 C361.24087503 308.51336588 364.90082652 311.68753166 368.5 315 C372.86686729 319.01529746 377.36811827 322.79137958 381.98046875 326.51953125 C390.89436884 333.84207531 399.54391834 341.49859181 408.046875 349.29296875 C410.09274828 351.15564357 410.09274828 351.15564357 413 353 C413 353.66 413 354.32 413 355 C398.0258191 355.13329151 383.05161494 355.26372376 368.07738304 355.39115143 C361.11749513 355.45043866 354.15761643 355.51055215 347.19775391 355.57275391 C345.17560331 355.59072743 343.15345245 355.6086713 341.1313014 355.62659454 C339.78472695 355.63856326 338.43815311 355.65060257 337.09157991 355.6627121 C329.6907943 355.72907695 322.29008411 355.78778726 314.88909912 355.82666016 C312.21089543 355.84122964 309.53269366 355.8561235 306.85449219 355.87109375 C305.53981838 355.87832458 304.22514458 355.88555542 302.87063217 355.89300537 C294.95968353 355.94570248 287.05388541 356.07177684 279.14501762 356.25962067 C274.14496629 356.37346005 269.14468457 356.45310916 264.14390945 356.52757263 C261.81124583 356.57115095 259.47881802 356.63077027 257.14701462 356.70765686 C237.15071265 357.3589301 237.15071265 357.3589301 230.70556641 351.61450195 C229.42784412 350.11147972 228.18431458 348.57767204 227 347 C225.26520886 345.54418203 223.51872617 344.10189527 221.75 342.6875 C215.66424618 337.75726906 209.73111227 332.66036666 203.79833984 327.54833984 C200.86997841 325.02707074 197.93473555 322.51384351 195 320 C191.48703601 316.98972957 187.97472375 313.97870979 184.46484375 310.96484375 C178.15518076 305.54871551 171.82705707 300.15601116 165.47241211 294.79272461 C162.6256767 292.38670634 159.79708155 289.96353836 157 287.5 C150.88192277 282.11301376 144.61927153 276.89153024 138.38525391 271.63964844 C131.41016619 265.76294895 124.48476439 259.83402023 117.60180664 253.84960938 C112.90840133 249.77377338 108.17485444 245.74827017 103.421875 241.7421875 C100.59106325 239.3539096 97.7790226 236.94832472 95 234.5 C89.40977909 229.57779291 83.69298669 224.80243625 78 220 C67.75116341 211.34985917 57.55075854 202.64481573 47.390625 193.890625 C42.16041805 189.38889083 36.9236718 184.90853868 31.5625 180.5625 C27.0719305 176.915573 22.6813964 173.16578665 18.3125 169.375 C17.66829102 168.81804443 17.02408203 168.26108887 16.36035156 167.68725586 C13.66993407 165.35414859 11.00950413 163.00887434 8.40625 160.578125 C7.7153125 159.93359375 7.024375 159.2890625 6.3125 158.625 C5.47138672 157.80902344 5.47138672 157.80902344 4.61328125 156.9765625 C3.04229947 155.81948452 3.04229947 155.81948452 1.09765625 156.09765625 C-1.64993512 157.27958103 -3.58661311 158.88232565 -5.875 160.8125 C-6.84695313 161.62847656 -7.81890625 162.44445312 -8.8203125 163.28515625 C-9.88081578 164.18939223 -10.94069448 165.09436115 -12 166 C-12.53979492 166.45874512 -13.07958984 166.91749023 -13.63574219 167.39013672 C-19.06665397 172.00593506 -24.46388457 176.66018892 -29.83984375 181.33984375 C-31.12230903 182.45582893 -32.40486076 183.57171477 -33.6875 184.6875 C-34.31720703 185.23543213 -34.94691406 185.78336426 -35.59570312 186.34790039 C-39.26265038 189.52774141 -42.97413466 192.63672971 -46.75 195.6875 C-50.44817537 198.67995847 -53.99806971 201.78000478 -57.5 205 C-61.89429958 209.04002083 -66.42113347 212.84632449 -71.0625 216.59765625 C-76.18791709 220.78932049 -81.18597571 225.12985045 -86.20166016 229.45166016 C-89.70963715 232.47196834 -93.2269935 235.48134467 -96.74267578 238.49267578 C-99.70013984 241.02658135 -102.655123 243.56327675 -105.60546875 246.10546875 C-110.91644291 250.67710453 -116.23680403 255.21953692 -121.6875 259.625 C-125.40443618 262.6399087 -128.9767821 265.7608322 -132.5 269 C-136.89429958 273.04002083 -141.42113347 276.84632449 -146.0625 280.59765625 C-151.18791709 284.78932049 -156.18597571 289.12985045 -161.20166016 293.45166016 C-164.70963715 296.47196834 -168.2269935 299.48134467 -171.74267578 302.49267578 C-174.70013984 305.02658135 -177.655123 307.56327675 -180.60546875 310.10546875 C-185.83673411 314.60880698 -191.07489245 319.09029743 -196.4375 323.4375 C-202.77230736 328.58336991 -208.90457605 333.95603142 -215.05957031 339.31396484 C-218.25992517 342.09474625 -221.47176525 344.86202981 -224.6875 347.625 C-225.26346924 348.12169189 -225.83943848 348.61838379 -226.43286133 349.13012695 C-227.94694537 350.42981147 -229.47295452 351.71556922 -231 353 C-231.51533295 353.53935181 -232.03066589 354.07870361 -232.56161499 354.63439941 C-236.5048625 356.84278779 -240.5000462 356.37506917 -244.93994141 356.31054688 C-245.95668819 356.3076918 -246.97343498 356.30483673 -248.02099228 356.30189514 C-251.42309225 356.28861405 -254.82462109 356.25368274 -258.2265625 356.21875 C-260.64490066 356.2047518 -263.06324658 356.19204316 -265.4815979 356.18054199 C-271.31231259 356.14928101 -277.14279223 356.10401469 -282.97335541 356.05191183 C-290.27480004 355.98725537 -297.57635327 355.94161467 -304.87792969 355.89453125 C-318.99414991 355.80060118 -333.11009557 355.68081825 -347.2260592 355.55462074 C-354.21132474 355.49224996 -361.19661359 355.43268578 -368.18190455 355.37324238 C-382.45462872 355.25172731 -396.72732401 355.12704712 -411 355 C-411 354.34 -411 353.68 -411 353 C-409.42713316 351.58561594 -407.78860004 350.24395599 -406.125 348.9375 C-402.31164438 345.88974135 -398.60191191 342.79499659 -395 339.5 C-391.62539052 336.42346328 -388.18184136 333.48881783 -384.625 330.625 C-380.61173716 327.38047483 -376.77584616 324.01252817 -373 320.5 C-368.46473641 316.28479582 -363.78443744 312.31578744 -358.96484375 308.4296875 C-353.52463182 303.97143741 -348.24955941 299.31997142 -342.94824219 294.69824219 C-334.64977906 287.4646445 -326.33298459 280.25619539 -317.91357422 273.16357422 C-313.10151613 269.10289574 -308.34764706 264.97685017 -303.59692383 260.84472656 C-299.48993318 257.27730568 -295.35125497 253.75091783 -291.1875 250.25 C-287.35316876 247.02564975 -283.58022159 243.74762689 -279.875 240.375 C-276.51983645 237.32337305 -273.09084123 234.41212213 -269.5625 231.5625 C-265.75912497 228.48663412 -262.09917348 225.31246834 -258.5 222 C-254.0301488 217.88621091 -249.40955107 214.02912703 -244.68359375 210.21484375 C-242.05291443 208.04367173 -239.52057576 205.79758643 -237 203.5 C-233.68010514 200.47717579 -230.30235888 197.57487839 -226.8125 194.75 C-217.89456738 187.52470615 -209.2409605 179.97150939 -200.75 172.25 C-196.53046667 168.42168168 -192.14730858 164.83265413 -187.71875 161.25 C-184.22091849 158.35524289 -180.88214596 155.30410461 -177.52734375 152.24609375 C-174.93037607 149.93812402 -172.26595987 147.74444137 -169.5625 145.5625 C-165.75912497 142.48663412 -162.09917348 139.31246834 -158.5 136 C-154.13313271 131.98470254 -149.63188173 128.20862042 -145.01953125 124.48046875 C-137.07922088 117.95770409 -129.35188634 111.16300315 -121.75 104.25 C-117.53046667 100.42168168 -113.14730858 96.83265413 -108.71875 93.25 C-106.07852271 91.06498431 -103.5327028 88.80828609 -101 86.5 C-96.70008209 82.58108748 -92.24080453 78.90829131 -87.71875 75.25 C-85.07852271 73.06498431 -82.5327028 70.80828609 -80 68.5 C-76.58260628 65.38541332 -73.0947765 62.4081338 -69.5 59.5 C-64.97400672 55.83579669 -60.62436929 52.02241167 -56.31640625 48.10546875 C-46.57600815 39.25205462 -36.55025959 30.64734443 -26.3125 22.375 C-21.61700431 18.56765525 -17.17254031 14.53503712 -12.7265625 10.44140625 C-8.63121877 6.77437211 -4.34044915 3.37067418 0 0 Z " fill="#05864F" transform="translate(787,513)"/>
<path d="M0 0 C43.23 0 86.46 0 131 0 C131 21.78 131 43.56 131 66 C166.97 66 202.94 66 240 66 C240 99.33 240 132.66 240 167 C204.03 167 168.06 167 131 167 C131 242.24 131 317.48 131 395 C87.77 395 44.54 395 0 395 C0 319.76 0 244.52 0 167 C-36.3 167 -72.6 167 -110 167 C-110 133.67 -110 100.34 -110 66 C-73.7 66 -37.4 66 0 66 C0 44.22 0 22.44 0 0 Z " fill="#058650" transform="translate(723,758)"/>
<path d="M0 0 C37.62 0 75.24 0 114 0 C114 17.16 114 34.32 114 52 C143.37 52 172.74 52 203 52 C203 85.99 203 119.98 203 155 C173.63 155 144.26 155 114 155 C114 177.11 114 199.22 114 222 C76.38 222 38.76 222 0 222 C0 199.89 0 177.78 0 155 C-28.05 155 -56.1 155 -85 155 C-85 121.01 -85 87.02 -85 52 C-56.95 52 -28.9 52 0 52 C0 34.84 0 17.68 0 0 Z " fill="#058650" transform="translate(920,384)"/>
<path d="M0 0 C37.62 0 75.24 0 114 0 C114 17.16 114 34.32 114 52 C141.72 52 169.44 52 198 52 C198 85.99 198 119.98 198 155 C170.28 155 142.56 155 114 155 C114 177.11 114 199.22 114 222 C76.38 222 38.76 222 0 222 C0 199.89 0 177.78 0 155 C-29.7 155 -59.4 155 -90 155 C-90 121.01 -90 87.02 -90 52 C-60.3 52 -30.6 52 0 52 C0 34.84 0 17.68 0 0 Z " fill="#058650" transform="translate(545,384)"/>
<path d="M0 0 C44.55 0 89.1 0 135 0 C133.65955663 4.0213301 132.52846625 7.16793271 130.6015625 10.80859375 C129.89193359 12.15824219 129.89193359 12.15824219 129.16796875 13.53515625 C128.65878906 14.49292969 128.14960937 15.45070313 127.625 16.4375 C126.53373586 18.50905227 125.44259339 20.58066863 124.3515625 22.65234375 C123.7937207 23.7079248 123.23587891 24.76350586 122.66113281 25.85107422 C120.09002612 30.72499164 117.54563021 35.61274331 115 40.5 C114.00273774 42.41152803 113.00534142 44.32298612 112.0078125 46.234375 C109.9808353 50.11930459 107.95490553 54.00477808 105.9296875 57.890625 C104.91151829 59.84378126 103.89328934 61.79690637 102.875 63.75 C102.37121826 64.71631348 101.86743652 65.68262695 101.34838867 66.67822266 C98.7347471 71.68780863 96.11016104 76.69127234 93.46923828 81.68652344 C88.41115561 91.25609985 83.45002755 100.87424698 78.5 110.5 C73.18217148 120.84097355 67.83946471 131.16640974 62.40234375 141.4453125 C58.99647053 147.88776477 55.64093402 154.35668499 52.28393555 160.82470703 C48.93340134 167.26393421 45.47750049 173.62458244 42 180 C-2.88 180 -47.76 180 -94 180 C-83.58928662 158.0218273 -83.58928662 158.0218273 -80.0625 151.4375 C-79.44882568 150.27963989 -79.44882568 150.27963989 -78.82275391 149.09838867 C-75.50281905 142.86448582 -72.05592158 136.70383339 -68.60302734 130.54296875 C-65.66537293 125.27243732 -62.91054213 119.93625757 -60.24511719 114.52392578 C-53.03082214 99.90698216 -45.34294462 85.51925336 -37.73876953 71.10229492 C-34.4743546 64.91095899 -31.23484732 58.70682807 -28 52.5 C-26.00057432 48.66636684 -24.00046453 44.83309116 -22 41 C-21.566875 40.16968262 -21.13375 39.33936523 -20.6875 38.48388672 C-13.94383309 25.56818405 -6.97890216 12.79465396 0 0 Z " fill="#05864F" transform="translate(562,971)"/>
<path d="M0 0 C17.49795114 -0.23368515 34.99541489 -0.40998174 52.49456978 -0.51812172 C60.61995756 -0.56966988 68.74437545 -0.63993352 76.86914062 -0.75439453 C83.95144035 -0.85412175 91.03303774 -0.91859384 98.11602008 -0.94088495 C101.86628798 -0.95391503 105.61454685 -0.98448779 109.36417007 -1.05730057 C113.55243934 -1.13797027 117.73722595 -1.1398965 121.92626953 -1.13525391 C123.16704758 -1.17120667 124.40782562 -1.20715942 125.686203 -1.24420166 C129.07618422 -1.20347229 131.78421933 -1.07840219 135 0 C137.86949971 3.00336038 139.40566238 6.19947691 141 10 C141.74331102 11.41655613 142.4965723 12.82801297 143.26660156 14.23022461 C143.97811628 15.61914005 144.68604669 17.00989673 145.390625 18.40234375 C145.96973633 19.53568649 145.96973633 19.53568649 146.56054688 20.69192505 C147.37523195 22.2870291 148.18840457 23.88290647 149.00012207 25.47952271 C151.11764721 29.64379234 153.24739203 33.8018132 155.375 37.9609375 C155.78679504 38.76674759 156.19859009 39.57255768 156.62286377 40.40278625 C162.07261494 51.06382911 167.65502679 61.64976062 173.33203125 72.19140625 C174.57582316 74.50244224 175.81937161 76.81360722 177.0625 79.125 C177.37688019 79.70921722 177.69126038 80.29343445 178.01516724 80.89535522 C183.73235896 91.52961908 189.27124121 102.25071929 194.77416992 112.99710083 C199.71899164 122.64836717 204.78440329 132.21714381 210.02490234 141.7121582 C213.24935736 147.56993693 216.312074 153.48675469 219.25805664 159.48901367 C221.93047968 164.92414912 224.80779095 170.23008818 227.75 175.5234375 C229 178 229 178 229 180 C211.48469194 180.18688397 193.96969498 180.32795521 176.45361805 180.41449738 C168.32054632 180.45574874 160.18809404 180.51198662 152.05541992 180.60351562 C144.96690625 180.68325511 137.87884113 180.73486566 130.78989142 180.75270796 C127.03606271 180.76313829 123.2835172 180.7876443 119.53009987 180.84584045 C115.33955619 180.91028713 111.1512426 180.91191938 106.96020508 180.90820312 C105.71583176 180.93696533 104.47145844 180.96572754 103.18937683 180.99536133 C94.9886266 180.91644334 94.9886266 180.91644334 92.17163944 178.30513477 C90.85879968 176.24954677 89.89852092 174.26349407 89 172 C88.57322464 171.23612473 88.14644928 170.47224945 87.70674133 169.68522644 C87.39270859 169.06746841 87.07867584 168.44971039 86.75512695 167.81323242 C86.38736649 167.09435349 86.01960602 166.37547455 85.64070129 165.6348114 C85.07025337 164.50653679 85.07025337 164.50653679 84.48828125 163.35546875 C84.07515182 162.54620438 83.6620224 161.73694 83.2363739 160.90315247 C81.92499604 158.3329938 80.61847639 155.76040687 79.3125 153.1875 C77.6020381 149.82591545 75.88947016 146.46540926 74.17578125 143.10546875 C73.75036041 142.27091156 73.32493958 141.43635437 72.8866272 140.57650757 C68.69539926 132.37130474 64.39836506 124.2231061 60.09457397 116.0765686 C57.53982311 111.22982863 55.02181081 106.36392984 52.5 101.5 C48.6653468 94.11461679 44.81940664 86.73566192 40.9375 79.375 C34.73745959 67.61881791 28.60130711 55.82937765 22.45898438 44.04296875 C20.93129332 41.11182072 19.40317813 38.18089411 17.875 35.25 C17.38225586 34.30431152 16.88951172 33.35862305 16.38183594 32.38427734 C13.96594734 27.75155914 11.54043234 23.12435066 9.09375 18.5078125 C8.40563232 17.2079541 8.40563232 17.2079541 7.70361328 15.88183594 C6.84484609 14.26150858 5.98398667 12.64228759 5.12060547 11.02441406 C4.54656982 9.94111816 4.54656982 9.94111816 3.9609375 8.8359375 C3.62884277 8.21251465 3.29674805 7.5890918 2.95458984 6.94677734 C1.8414241 4.6766025 0.92936925 2.35058364 0 0 Z " fill="#05854F" transform="translate(879,971)"/>
<path d="M0 0 C1.32 0.66 2.64 1.32 4 2 C3.46387589 2.21015244 2.92775177 2.42030487 2.37538147 2.63682556 C-0.91556731 4.52542211 -3.36944133 7.12471174 -6.00610352 9.81079102 C-6.59683655 10.40444458 -7.18756958 10.99809814 -7.79620361 11.60974121 C-9.07575816 12.89689602 -10.35299722 14.18635589 -11.62817574 15.47784615 C-13.64510694 17.52031204 -15.66822757 19.5564578 -17.69309998 21.59104919 C-21.98851252 25.90931228 -26.27604758 30.23534507 -30.5625 34.5625 C-35.53273896 39.5798923 -40.50612897 44.59407214 -45.48801994 49.59989738 C-47.48356101 51.60842857 -49.47299659 53.62287751 -51.46229553 55.6375885 C-52.68233155 56.86488764 -53.90264815 58.09190794 -55.12329102 59.31860352 C-55.67661606 59.8822612 -56.2299411 60.44591888 -56.80003357 61.0266571 C-59.1866584 63.41393966 -60.75034218 64.91678073 -64 66 C-62.35606624 61.78407069 -59.23644614 58.96977386 -56.08154297 55.85449219 C-55.47652954 55.24918671 -54.87151611 54.64388123 -54.24816895 54.02023315 C-52.25088001 52.0243355 -50.24660442 50.03561201 -48.2421875 48.046875 C-46.85455498 46.66297332 -45.4673639 45.27862888 -44.08059692 43.89385986 C-40.432074 40.2529678 -36.77758448 36.61812222 -33.12182617 32.98449707 C-29.39140211 29.27454312 -25.66664357 25.55891073 -21.94140625 21.84375 C-14.63314253 14.55692656 -7.31856384 7.27647735 0 0 Z " fill="#790911" transform="translate(277,212)"/>
<path d="M0 0 C44.55 0 89.1 0 135 0 C134.67 0.66 134.34 1.32 134 2 C133.32247272 1.99907821 132.64494543 1.99815641 131.94688702 1.99720669 C115.47240956 1.97513657 98.99793677 1.95858116 82.52344799 1.94818783 C74.55656084 1.94302829 66.58968355 1.93599209 58.62280273 1.92456055 C51.68007361 1.91460328 44.73735163 1.90814408 37.79461557 1.90591151 C34.11741872 1.90460618 30.4402423 1.90153151 26.76305199 1.89426994 C22.66127994 1.88623539 18.55954356 1.88600954 14.45776367 1.88647461 C13.23425201 1.88287933 12.01074036 1.87928406 10.75015259 1.87557983 C9.63536026 1.8769545 8.52056793 1.87832916 7.37199402 1.87974548 C6.40134601 1.87882369 5.43069799 1.8779019 4.43063641 1.87695217 C1.85843728 1.89837708 1.85843728 1.89837708 -1 3 C-0.67 2.01 -0.34 1.02 0 0 Z " fill="#02472A" transform="translate(562,971)"/>
</svg>
